<!-- Generated by SVGMaker - https://svgmaker.io -->
<!-- Prompt: convert the lighthouse scene to night with a moon in the sky -->
<svg version="1.1" xmlns="http://www.w3.org/2000/svg" style="display: block;" viewBox="0 0 2048 2048" width="1024" height="1024">
<defs>
	<linearGradient id="Gradient1" gradientUnits="userSpaceOnUse" x1="1242.06" y1="369.39" x2="1646.77" y2="407.927">
		<stop class="stop0" offset="0" stop-opacity="1" stop-color="rgb(109,111,111)"/>
		<stop class="stop1" offset="1" stop-opacity="1" stop-color="rgb(167,156,131)"/>
	</linearGradient>
	<linearGradient id="Gradient2" gradientUnits="userSpaceOnUse" x1="555.919" y1="429.944" x2="694.311" y2="397.935">
		<stop class="stop0" offset="0" stop-opacity="1" stop-color="rgb(57,58,60)"/>
		<stop class="stop1" offset="1" stop-opacity="1" stop-color="rgb(84,80,71)"/>
	</linearGradient>
	<linearGradient id="Gradient3" gradientUnits="userSpaceOnUse" x1="668.817" y1="420.21" x2="898.944" y2="394.419">
		<stop class="stop0" offset="0" stop-opacity="1" stop-color="rgb(80,76,68)"/>
		<stop class="stop1" offset="1" stop-opacity="1" stop-color="rgb(148,120,83)"/>
	</linearGradient>
	<linearGradient id="Gradient4" gradientUnits="userSpaceOnUse" x1="911.919" y1="337.225" x2="955.977" y2="437.82">
		<stop class="stop0" offset="0" stop-opacity="1" stop-color="rgb(96,73,51)"/>
		<stop class="stop1" offset="1" stop-opacity="1" stop-color="rgb(136,102,64)"/>
	</linearGradient>
	<linearGradient id="Gradient5" gradientUnits="userSpaceOnUse" x1="1072.5" y1="340.909" x2="1140.25" y2="432.751">
		<stop class="stop0" offset="0" stop-opacity="1" stop-color="rgb(108,82,55)"/>
		<stop class="stop1" offset="1" stop-opacity="1" stop-color="rgb(151,113,70)"/>
	</linearGradient>
	<linearGradient id="Gradient6" gradientUnits="userSpaceOnUse" x1="1022.56" y1="363.205" x2="957.221" y2="409.49">
		<stop class="stop0" offset="0" stop-opacity="1" stop-color="rgb(128,96,63)"/>
		<stop class="stop1" offset="1" stop-opacity="1" stop-color="rgb(187,140,84)"/>
	</linearGradient>
	<linearGradient id="Gradient7" gradientUnits="userSpaceOnUse" x1="1028.39" y1="436.439" x2="1072.16" y2="388.978">
		<stop class="stop0" offset="0" stop-opacity="1" stop-color="rgb(165,121,72)"/>
		<stop class="stop1" offset="1" stop-opacity="1" stop-color="rgb(197,154,92)"/>
	</linearGradient>
	<linearGradient id="Gradient8" gradientUnits="userSpaceOnUse" x1="1016.34" y1="322.55" x2="1029.76" y2="362.758">
		<stop class="stop0" offset="0" stop-opacity="1" stop-color="rgb(94,70,48)"/>
		<stop class="stop1" offset="1" stop-opacity="1" stop-color="rgb(147,111,70)"/>
	</linearGradient>
	<linearGradient id="Gradient9" gradientUnits="userSpaceOnUse" x1="830.568" y1="1224.05" x2="1199.23" y2="1231.28">
		<stop class="stop0" offset="0" stop-opacity="1" stop-color="rgb(0,0,16)"/>
		<stop class="stop1" offset="1" stop-opacity="1" stop-color="rgb(64,67,68)"/>
	</linearGradient>
</defs>
<path transform="translate(0,0)" fill="rgb(3,14,27)" d="M 0 0 L 2048 0 L 2048 1236.51 L 2048 2048 L 0 2048 L 0 1235.92 L 0 0 z"/>
<path transform="translate(0,0)" fill="rgb(0,3,9)" d="M 841.572 1127.49 C 854.464 1127.32 867.299 1126.4 880.21 1126.31 C 904.01 1126.14 927.726 1127.12 951.499 1127.2 L 1034.55 1126.84 C 1060.31 1126.81 1087 1128.51 1112.65 1127.16 C 1138.03 1128.9 1164.12 1127.87 1189.59 1127.9 C 1191.86 1164.12 1193.31 1200.65 1196.78 1236.77 L 1752.23 1236.53 L 1947.82 1236.19 C 1981.11 1236.17 2014.75 1235.09 2048 1236.51 L 2048 2048 L 0 2048 L 0 1235.92 C 55.3567 1236.39 110.716 1236.49 166.074 1236.21 L 417.101 1236.23 L 721.718 1236.39 C 758.931 1236.38 796.187 1237.05 833.394 1236.62 C 833.111 1252.19 832.261 1267.76 830.847 1283.27 C 830.128 1291.21 828.222 1299.86 828.21 1307.71 C 828.425 1306.95 828.621 1306.19 828.842 1305.43 C 831.394 1296.68 842.917 1137.46 841.572 1127.49 z"/>
<path transform="translate(0,0)" fill="url(#Gradient9)" d="M 841.572 1127.49 C 854.464 1127.32 867.299 1126.4 880.21 1126.31 C 904.01 1126.14 927.726 1127.12 951.499 1127.2 L 1034.55 1126.84 C 1060.31 1126.81 1087 1128.51 1112.65 1127.16 C 1138.03 1128.9 1164.12 1127.87 1189.59 1127.9 C 1191.86 1164.12 1193.31 1200.65 1196.78 1236.77 C 1197.81 1255.7 1198.28 1275.53 1200.89 1294.3 C 1194.39 1302.7 1187.87 1310.83 1176.58 1312.22 C 1166.38 1313.47 1155.24 1310.95 1144.9 1310.88 L 1142.69 1249.72 C 1142.21 1233.7 1142.96 1215.63 1139.38 1199.99 C 1137.81 1193.17 1134.79 1185.91 1129.44 1181.18 C 1125.89 1178.05 1121.51 1176.49 1116.77 1176.96 C 1109.28 1177.7 1102.24 1182.14 1097.63 1187.98 C 1078.35 1212.41 1087.62 1279.79 1086.73 1310.87 C 1073.45 1317.43 1054.6 1327.21 1040.23 1330.09 C 1016.16 1334.91 885.332 1328.05 861.443 1319.98 C 850.303 1316.22 839.665 1310.48 828.21 1307.71 C 828.425 1306.95 828.621 1306.19 828.842 1305.43 C 831.394 1296.68 842.917 1137.46 841.572 1127.49 z"/>
<path transform="translate(0,0)" fill="rgb(3,14,27)" d="M 1623.62 1613.78 C 1692.05 1630.59 1755.06 1633.25 1821.72 1606.69 C 1800.32 1625.2 1771.18 1633.48 1743.93 1638.36 C 1807.57 1656.58 1879.15 1649.31 1941.33 1628.64 C 1921.63 1643.55 1889.05 1656.5 1865.01 1661.59 C 1824.3 1670.2 1758.27 1670.12 1716.88 1664.3 C 1708.63 1663.14 1700.43 1661.37 1692.26 1659.74 C 1701.65 1665.83 1711.15 1669.66 1721.53 1673.71 C 1730.05 1677.03 1738.73 1680.93 1747.58 1683.22 C 1772.8 1689.75 1803.75 1690.11 1829.48 1687.44 C 1812.75 1695.61 1794.34 1696.97 1776.06 1698.65 C 1709.12 1704.77 1640.9 1697.04 1574.66 1687.13 C 1540.56 1682.02 1506.23 1675.8 1471.9 1672.61 C 1436.72 1669.35 1391.66 1669.08 1356.75 1672.9 C 1379.53 1677.56 1401.72 1679.58 1424.71 1682.4 C 1410.2 1684.74 1395.44 1685.47 1380.82 1686.87 C 1358.4 1689.01 1335.78 1691.66 1313.57 1695.35 C 1207.43 1712.98 1101.48 1742.08 992.775 1731.61 C 949.615 1727.45 905.951 1720.1 863.626 1710.62 C 841.713 1705.72 816.897 1697.33 795.205 1694.29 C 808.233 1700.8 821.724 1706.3 834.76 1712.85 C 847.804 1719.41 860.536 1726.62 873.647 1733.03 C 937.115 1764.09 998.021 1784.29 1068.83 1788.68 C 1004.92 1801.56 920.103 1777.47 859.708 1755.02 C 821.303 1740.74 783.943 1724.31 742.987 1718.83 C 694.515 1712.34 643.1 1712.2 594.422 1716.09 C 562.415 1718.64 518.076 1724.55 486.892 1722.54 C 540.623 1709.34 592.196 1687.28 646.844 1678.24 C 631.085 1673.99 615.086 1668.47 598.997 1665.81 C 521.468 1653.01 437.705 1672.05 361.033 1684.53 C 331.326 1689.36 298.153 1695.98 268.168 1694.9 C 282.013 1690.72 295.644 1685.87 309.011 1680.34 C 316.868 1673.76 328.917 1672.96 336.943 1664.59 C 331.693 1666.22 326.583 1667.86 321.08 1668.36 C 303.423 1669.98 284.727 1667.95 267 1667.36 C 223.228 1665.88 174.794 1665.92 132.126 1655.6 C 153.187 1654.91 174.195 1653.06 195.053 1650.06 C 223.013 1645.88 251.367 1639.89 279.661 1639.09 C 310.536 1638.22 339.743 1643.73 369.918 1649.18 C 373.167 1649.55 376.344 1650.08 379.559 1650.68 C 462.167 1624.99 552.053 1610.44 636.493 1636.17 C 655.501 1641.97 673.963 1649.04 692.442 1656.31 C 702.1 1660.11 712.107 1664.97 722.094 1667.71 C 739.266 1672.44 764.159 1670.29 783.396 1674.06 C 859.702 1689.05 932.073 1717.13 1011.12 1716.11 C 1083.4 1715.18 1150.97 1698.77 1219.77 1677.54 C 1287.2 1656.74 1351.45 1631.06 1423.3 1633.1 C 1442.09 1633.52 1460.81 1635.52 1479.25 1639.1 C 1515.49 1645.76 1551.17 1655.2 1587.15 1663.09 C 1621.23 1670.68 1655.64 1676.65 1690.28 1681 C 1697.23 1681.92 1709.51 1685 1715.94 1683.13 C 1711.22 1677.26 1692.29 1679.21 1684.03 1673.53 C 1667.61 1662.24 1639.13 1629.5 1623.62 1613.78 z"/>
<path transform="translate(0,0)" fill="rgb(0,3,9)" d="M 860.664 318.123 C 877.44 305.857 1005.76 221.58 1008.15 211.449 C 1010.36 202.088 993.952 190.902 1002.3 182.669 C 1007.34 177.697 1015.95 179.877 1016.79 173.355 C 1020.63 143.366 1018.58 112.707 1022.79 82.7684 C 1027.74 113.441 1026.18 145.822 1028.31 176.873 C 1033.03 178.165 1041.11 180.316 1043.52 185.013 C 1044.69 187.306 1044.58 189.541 1043.44 191.798 C 1040.36 197.895 1032.65 204.094 1034.63 211.62 C 1035.31 214.173 1037.47 216.899 1039.32 218.706 C 1044.09 223.351 1050.34 227.237 1055.62 231.38 C 1082.26 252.263 1110.55 270.797 1138.74 289.454 C 1152.7 298.692 1165.94 309.015 1179.98 318.119 C 1167.82 324.265 1155.53 330.477 1142.67 335.021 C 1139.36 371.433 1139.71 414.11 1139.88 450.928 C 1154.97 450.84 1172.84 456.909 1187.7 460.196 C 1188.52 474.573 1189.1 488.962 1189.44 503.357 C 1189.7 513.663 1189.36 524.421 1190.75 534.631 L 1192.37 535.604 C 1195.39 537.451 1197.54 538.941 1198.23 542.639 C 1199.72 550.686 1193.88 559.143 1189.03 564.934 C 1178.65 577.328 1161.56 591.371 1155.86 606.756 C 1149.23 624.674 1166.66 742.948 1161.19 748.469 L 1096.69 742.697 L 1095.63 741.826 C 1044.78 737.383 995.16 735.975 944.151 737.641 C 918.962 738.463 894.136 739.523 869.136 742.845 C 871.298 725.013 871.667 706.512 872.852 688.575 C 874.69 660.734 876.937 632.841 877.73 604.947 C 877.526 604.739 877.319 604.535 877.119 604.324 C 872.379 599.325 842.867 557.639 841.514 553.208 C 839.986 548.203 840.729 541.507 840.781 536.278 C 844.805 535.208 848.902 534.395 852.97 533.506 C 853.971 508.055 853.07 482.378 855.398 457.018 C 870.267 453.069 886.475 451.78 901.677 448.749 C 901.802 442.796 903.126 433.786 901.499 428.22 C 900.546 413.504 900.96 398.562 900.907 383.811 L 900.916 378.09 C 900.961 371.842 900.455 365.562 899.999 359.335 C 900.089 350.933 900.052 342.53 899.889 334.129 C 886.687 329.556 871.915 326.713 860.664 318.123 z"/>
<path transform="translate(0,0)" fill="url(#Gradient8)" d="M 1007.61 323.958 L 1067.77 323.648 C 1067.08 332.721 1067.09 341.775 1067.07 350.868 L 1066.98 356.184 L 1066.9 368.723 L 1066.96 381.06 C 1067.07 400.123 1067.14 419.162 1065.89 438.194 L 1065.99 439.238 C 1054.29 441.032 1039.81 439.421 1027.86 439.312 L 1013.42 439.348 C 1000.54 439.957 987.685 439.103 974.781 439.937 C 974.069 429.394 973.983 418.859 973.859 408.296 C 970.656 389.122 972.927 345.837 973.034 324.048 L 1007.61 323.958 z"/>
<path transform="translate(0,0)" fill="rgb(209,165,96)" d="M 1008.45 363.287 C 1014.99 362.817 1021.93 361.774 1028.35 363.447 C 1028.88 363.586 1029.41 363.711 1029.94 363.855 C 1034.74 365.159 1052.76 376.49 1054.12 376.335 C 1055.57 376.171 1056.76 376.166 1058.2 376.284 L 1059.42 378.099 C 1060.44 376.297 1061.42 374.365 1062.5 372.607 C 1063.69 370.665 1065.03 369.924 1066.9 368.723 L 1066.96 381.06 C 1067.07 400.123 1067.14 419.162 1065.89 438.194 L 1065.99 439.238 C 1054.29 441.032 1039.81 439.421 1027.86 439.312 L 1013.42 439.348 C 1013.39 435.075 1012.05 431.149 1010.89 427.071 C 1010.32 427.078 1009.75 427.142 1009.18 427.094 C 1002.87 426.555 997.125 420.546 994.108 415.538 C 993.178 413.994 992.343 412.56 991.17 411.182 C 990.84 410.795 990.501 410.415 990.166 410.031 L 988.952 410.066 C 986.22 401.668 988.855 392.4 986.205 384.235 C 990.165 381.958 991.625 379.361 996.482 378.044 C 996.947 375.219 998.466 372.994 999.884 370.561 C 1002.55 367.671 1005.18 365.482 1008.45 363.287 z"/>
<path transform="translate(0,0)" fill="url(#Gradient7)" d="M 1008.45 363.287 C 1014.99 362.817 1021.93 361.774 1028.35 363.447 C 1028.88 363.586 1029.41 363.711 1029.94 363.855 C 1034.74 365.159 1052.76 376.49 1054.12 376.335 C 1055.57 376.171 1056.76 376.166 1058.2 376.284 L 1059.42 378.099 C 1060.44 376.297 1061.42 374.365 1062.5 372.607 C 1063.69 370.665 1065.03 369.924 1066.9 368.723 L 1066.96 381.06 C 1067.07 400.123 1067.14 419.162 1065.89 438.194 L 1065.99 439.238 C 1054.29 441.032 1039.81 439.421 1027.86 439.312 C 1027.9 434.491 1028.29 431.974 1031.13 428 C 1034.05 427.201 1037.67 424.634 1039.92 422.602 C 1045.22 417.821 1047.26 411.332 1047.45 404.425 C 1048.49 398.456 1050.21 392.626 1050.03 386.531 C 1047.43 380.366 1039.66 373.632 1033.92 370.192 C 1022.72 363.482 1011.48 367.376 999.884 370.561 C 1002.55 367.671 1005.18 365.482 1008.45 363.287 z"/>
<path transform="translate(0,0)" fill="rgb(209,165,96)" d="M 1065.89 438.194 C 1065.1 437.819 1064.54 437.607 1063.84 437.009 C 1059.03 432.888 1060.57 412.561 1060.65 406.054 C 1060.73 399.549 1059.86 385.277 1064.57 380.677 L 1066.96 381.06 C 1067.07 400.123 1067.14 419.162 1065.89 438.194 z"/>
<path transform="translate(0,0)" fill="rgb(220,179,105)" d="M 995.184 385.76 C 996.905 384.808 998.169 384.177 1000.02 383.559 C 1001.79 382.97 1002.64 382.257 1004.11 381.188 C 1008.95 377.668 1015.38 375.618 1021.4 376.422 C 1026.01 377.037 1030.17 379.273 1032.8 383.182 C 1035.68 387.454 1036.17 393.117 1035 398.045 C 1034.02 402.174 1032.19 405.184 1028.5 407.356 C 1027.08 407.282 1025.7 407.153 1024.3 407.029 C 1022.53 406.873 1023.23 406.805 1021.58 407.521 C 1023.28 409.133 1024.55 409.684 1026.63 410.722 L 1029.91 410.25 L 1029.81 411.665 C 1025.19 413.655 1010.09 414.978 1005.27 413.256 C 998.576 410.865 997.17 405.562 993.965 400.085 C 993.695 395.148 994.409 390.607 995.184 385.76 z"/>
<path transform="translate(0,0)" fill="rgb(168,128,78)" d="M 986.205 384.235 C 990.165 381.958 991.625 379.361 996.482 378.044 L 994.383 384.705 L 995.184 385.76 C 994.409 390.607 993.695 395.148 993.965 400.085 L 995.407 411.262 C 995.692 413.151 996.142 414.852 997.378 416.378 C 1004.25 424.859 1027.72 421.344 1037.83 421.559 C 1042.76 415.871 1045.33 411.586 1047.45 404.425 C 1047.26 411.332 1045.22 417.821 1039.92 422.602 C 1037.67 424.634 1034.05 427.201 1031.13 428 C 1028.29 431.974 1027.9 434.491 1027.86 439.312 L 1013.42 439.348 C 1013.39 435.075 1012.05 431.149 1010.89 427.071 C 1010.32 427.078 1009.75 427.142 1009.18 427.094 C 1002.87 426.555 997.125 420.546 994.108 415.538 C 993.178 413.994 992.343 412.56 991.17 411.182 C 990.84 410.795 990.501 410.415 990.166 410.031 L 988.952 410.066 C 986.22 401.668 988.855 392.4 986.205 384.235 z"/>
<path transform="translate(0,0)" fill="rgb(220,179,105)" d="M 1010.89 427.071 C 1015.46 425.863 1025.93 425.916 1030.44 427.596 C 1030.69 427.689 1030.9 427.865 1031.13 428 C 1028.29 431.974 1027.9 434.491 1027.86 439.312 L 1013.42 439.348 C 1013.39 435.075 1012.05 431.149 1010.89 427.071 z"/>
<path transform="translate(0,0)" fill="url(#Gradient6)" d="M 973.034 324.048 L 1007.61 323.958 C 1008.44 329.624 1012.44 331.32 1015.27 335.831 C 1014.81 336.168 1014.36 336.518 1013.89 336.842 C 1011.37 338.588 1008.47 338.727 1005.57 339.488 C 989.824 343.622 989.405 349.185 982.399 362.956 C 981.953 366.261 981.834 369.074 982.147 372.399 L 983.033 373.403 L 984.265 372.471 C 985.983 371.197 985.262 371.663 987.064 370.71 L 987.495 370.884 L 987.51 374.866 C 984.164 377.309 983.594 379.393 982.432 383.287 L 983.018 385.055 L 984.266 385.648 L 984.441 384.024 C 984.828 383.499 985.248 382.997 985.602 382.45 C 985.765 382.199 986.952 379.895 987.046 379.718 C 988.513 376.981 990.583 373.472 993.588 372.195 C 993.869 372.076 994.177 372.033 994.471 371.952 C 992.015 376.187 987.954 379.768 986.205 384.235 C 988.855 392.4 986.22 401.668 988.952 410.066 L 990.166 410.031 C 990.501 410.415 990.84 410.795 991.17 411.182 C 992.343 412.56 993.178 413.994 994.108 415.538 C 997.125 420.546 1002.87 426.555 1009.18 427.094 C 1009.75 427.142 1010.32 427.078 1010.89 427.071 C 1012.05 431.149 1013.39 435.075 1013.42 439.348 C 1000.54 439.957 987.685 439.103 974.781 439.937 C 974.069 429.394 973.983 418.859 973.859 408.296 C 970.656 389.122 972.927 345.837 973.034 324.048 z"/>
<path transform="translate(0,0)" fill="rgb(117,83,51)" d="M 973.034 324.048 L 1007.61 323.958 C 1008.44 329.624 1012.44 331.32 1015.27 335.831 C 1002.57 334.566 988.074 337.782 976.169 332.956 C 973.268 335.84 973.833 345.573 973.818 349.671 C 973.751 369.06 975.228 388.986 973.859 408.296 C 970.656 389.122 972.927 345.837 973.034 324.048 z"/>
<path transform="translate(0,0)" fill="rgb(166,125,77)" d="M 987.51 374.866 C 988.606 373.789 989.563 373.058 990.885 372.248 C 1013.78 358.226 1018.47 352.788 1045.49 363.536 C 1048.8 364.853 1052.17 366.189 1055.8 365.619 C 1057.93 365.283 1058.66 363.656 1059.86 361.984 C 1061.85 359.204 1062.89 358.139 1066.08 356.603 C 1066.38 356.459 1066.68 356.323 1066.98 356.184 L 1066.9 368.723 C 1065.03 369.924 1063.69 370.665 1062.5 372.607 C 1061.42 374.365 1060.44 376.297 1059.42 378.099 L 1058.2 376.284 C 1056.76 376.166 1055.57 376.171 1054.12 376.335 C 1052.76 376.49 1034.74 365.159 1029.94 363.855 C 1029.41 363.711 1028.88 363.586 1028.35 363.447 C 1021.93 361.774 1014.99 362.817 1008.45 363.287 C 1005.18 365.482 1002.55 367.671 999.884 370.561 C 998.466 372.994 996.947 375.219 996.482 378.044 C 991.625 379.361 990.165 381.958 986.205 384.235 C 987.954 379.768 992.015 376.187 994.471 371.952 C 994.177 372.033 993.869 372.076 993.588 372.195 C 990.583 373.472 988.513 376.981 987.046 379.718 C 986.952 379.895 985.765 382.199 985.602 382.45 C 985.248 382.997 984.828 383.499 984.441 384.024 L 984.266 385.648 L 983.018 385.055 L 982.432 383.287 C 983.594 379.393 984.164 377.309 987.51 374.866 z"/>
<path transform="translate(0,0)" fill="rgb(168,128,78)" d="M 1042.39 358.359 C 1046.07 360.421 1049.7 362.995 1054.06 362.235 C 1055.91 360.928 1056.3 359.81 1057.07 357.762 C 1057.95 355.409 1058.87 353.298 1060.03 351.073 C 1062.95 349.645 1063.94 350.272 1067.07 350.868 L 1066.98 356.184 C 1066.68 356.323 1066.38 356.459 1066.08 356.603 C 1062.89 358.139 1061.85 359.204 1059.86 361.984 C 1058.66 363.656 1057.93 365.283 1055.8 365.619 C 1052.17 366.189 1048.8 364.853 1045.49 363.536 C 1018.47 352.788 1013.78 358.226 990.885 372.248 C 989.563 373.058 988.606 373.789 987.51 374.866 L 987.495 370.884 L 987.064 370.71 C 985.262 371.663 985.983 371.197 984.265 372.471 L 983.033 373.403 L 982.147 372.399 C 981.834 369.074 981.953 366.261 982.399 362.956 L 983.547 364.963 C 990.933 365.862 1010.66 351.213 1025.24 351.398 C 1031.29 351.474 1038.22 353.917 1042.39 358.359 z"/>
<path transform="translate(0,0)" fill="url(#Gradient5)" d="M 1087.67 326.184 C 1101.35 328.289 1115.21 330.894 1128.54 334.593 C 1128.75 372.2 1128.29 409.808 1127.17 447.399 C 1113.29 444.31 1099.01 443.246 1085.05 440.467 C 1086.86 402.444 1085.64 364.221 1087.67 326.184 z"/>
<path transform="translate(0,0)" fill="url(#Gradient4)" d="M 951.035 327.341 C 952.607 327.312 951.758 327.147 953.485 328.199 C 954.56 366.015 955.205 403.842 955.42 441.673 C 942.66 443.155 929.928 444.865 917.229 446.802 C 916.425 446.761 915.492 446.381 914.713 446.157 C 912.653 435.54 914.032 422.511 913.9 411.519 C 913.594 386.004 912.577 360.243 913.499 334.747 C 925.98 332.124 938.493 329.655 951.035 327.341 z"/>
<path transform="translate(0,0)" fill="rgb(117,83,51)" d="M 957.535 660.439 C 960.091 660.2 958.858 660.054 961.238 660.841 C 965.076 670.528 963.252 696.69 963.313 708.319 L 945.751 708.82 L 941.305 708.439 C 937.86 703.63 940.194 670.271 940.413 662.32 C 946.071 661.402 951.832 660.998 957.535 660.439 z"/>
<path transform="translate(0,0)" fill="rgb(63,60,57)" d="M 1067.77 323.648 C 1068.6 336.484 1065.94 361.035 1069.77 371.912 L 1072.83 371.84 L 1072.49 370.164 L 1072.48 371.967 C 1074.97 371.528 1076.65 370.826 1078.93 372.387 C 1081.03 373.831 1081.46 375.837 1081.82 378.177 L 1081.02 378.442 C 1079.96 376.916 1078.94 375.366 1077.96 373.795 L 1076.46 373.629 C 1075.35 374.77 1075.57 374.131 1075.51 375.414 C 1076.27 376.262 1078.11 377.843 1078.52 378.797 C 1080.67 383.785 1079.94 394.399 1081.69 400.554 L 1081.9 398.936 C 1083.35 406.005 1086.04 419.979 1081.9 426.181 C 1078.42 431.404 1072.92 435.196 1067.08 437.28 L 1065.99 439.238 L 1065.89 438.194 C 1067.14 419.162 1067.07 400.123 1066.96 381.06 L 1066.9 368.723 L 1066.98 356.184 L 1067.07 350.868 C 1067.09 341.775 1067.08 332.721 1067.77 323.648 z"/>
<path transform="translate(0,0)" fill="rgb(3,14,27)" d="M 1174.94 474.431 C 1176.18 474.453 1175.46 474.286 1176.83 475.547 C 1177.9 488.169 1177.9 519.47 1176.49 531.475 C 1174.1 532.655 1170.84 531.502 1168.21 531.108 L 1165.98 530.173 C 1163.62 521.402 1164.69 486.736 1165.5 476.641 C 1167.83 474.596 1171.92 474.73 1174.94 474.431 z"/>
<path transform="translate(0,0)" fill="rgb(3,14,27)" d="M 866.096 470.857 C 869.034 471.122 873.546 471.267 875.763 473.296 C 877.907 487.999 876.115 513.56 876.291 529.457 L 865.988 531.017 L 866.096 470.857 z"/>
<path transform="translate(0,0)" fill="rgb(3,14,27)" d="M 887.833 473.605 C 891.268 474.748 894.258 475.874 897.371 477.737 C 900.975 482.212 898.787 518.443 898.662 526.414 C 895.277 526.694 891.894 526.64 888.501 526.636 C 886.314 511.142 887.927 489.752 887.833 473.605 z"/>
<path transform="translate(0,0)" fill="rgb(3,14,27)" d="M 1147.01 476.814 C 1149.15 476.974 1151.29 477.215 1153.44 477.434 C 1153.9 478.187 1154.11 478.421 1154.35 479.393 C 1155.93 485.842 1156.07 523.331 1153.09 528.522 L 1150.78 528.306 C 1148.12 527.737 1145.63 527.063 1143.04 526.22 C 1142.95 525.844 1143.78 486.973 1143.99 483.89 C 1144.24 480.283 1144.25 479.225 1147.01 476.814 z"/>
<path transform="translate(0,0)" fill="rgb(0,3,9)" d="M 841.572 1127.49 C 838.773 1117.53 847.034 1049.13 848.173 1033.68 C 850.497 1002.19 851.61 970.449 854.415 939.012 C 854.729 935.491 855.048 932.129 856.688 928.95 C 868.669 922.423 1005.96 925.941 1029.93 926.747 C 1038.85 927.047 1076.3 929.041 1082.28 928.083 C 1082.75 928.008 1083.22 927.907 1083.69 927.819 C 1114.23 927.906 1145.56 931.275 1176.04 933.765 C 1177.94 940.706 1177.3 949.802 1177.75 957.075 C 1178.99 975.41 1180.08 993.756 1181.02 1012.11 C 1182.99 1050.31 1186.17 1088.54 1188.81 1126.7 C 1164.73 1126.7 1136.2 1124.79 1112.65 1127.16 C 1087 1128.51 1060.31 1126.81 1034.55 1126.84 L 951.499 1127.2 C 927.726 1127.12 904.01 1126.14 880.21 1126.31 C 867.299 1126.4 854.464 1127.32 841.572 1127.49 z"/>
<path transform="translate(0,0)" fill="rgb(117,83,51)" d="M 921.488 991.126 C 930.288 991.026 939.025 991.102 947.818 991.488 C 947.815 1012.11 947.579 1032.74 947.108 1053.36 L 920.35 1053.06 C 920.387 1032.43 921.013 1011.75 921.488 991.126 z"/>
<path transform="translate(0,0)" fill="url(#Gradient3)" d="M 703.41 362.937 C 731.112 364.099 759.243 368.512 786.869 371.378 C 796.049 372.331 805.665 373.79 814.886 373.911 C 824.521 375.893 834.695 376.29 844.491 377.188 C 857.559 379.326 892.052 380.079 900.907 383.811 C 900.96 398.562 900.546 413.504 901.499 428.22 L 900.406 430.706 C 872.664 438.39 843.891 443.687 815.751 449.829 C 777.992 458.069 739.925 466.965 701.82 473.367 L 700.799 472.014 C 698.621 472.907 699.681 472.866 697.634 472.363 C 693.5 465.503 689.352 458.501 684.724 451.967 C 681.971 448.082 677.574 443.906 675.687 439.581 C 673.743 435.123 670.866 418.132 668.865 411.577 C 668.04 408.876 667.673 406.136 667.461 403.324 C 666.361 388.685 675.935 377.73 684.962 367.407 C 685.557 366.726 687.681 363.956 688.4 363.729 C 692.059 362.574 699.431 363.212 703.41 362.937 z"/>
<path transform="translate(0,0)" fill="url(#Gradient2)" d="M 701.82 473.367 C 701.632 473.453 701.453 473.566 701.255 473.626 C 692.215 476.398 682.353 477.832 673.072 479.754 L 615.608 491.313 L 464.164 522.301 C 451.274 524.92 363.206 544.104 360.186 542.385 C 372.702 538.252 387.952 536.738 400.976 534.053 C 456.934 522.516 513.075 511.418 568.865 498.969 C 575.398 497.511 582.389 497.528 588.67 496.031 C 590.572 495.578 591.422 495.103 592.863 493.849 C 597.212 482.799 574.282 464.158 568.801 454.736 C 562.599 444.075 557.599 431.545 553.878 419.8 C 541.086 379.422 572.637 360.692 571.365 351.165 C 561.17 347.422 517.386 345.378 503.999 344.205 L 383.213 332.635 C 360.97 330.468 338.575 329.295 316.457 326.027 C 319.182 324.735 669.196 357.52 703.41 362.937 C 699.431 363.212 692.059 362.574 688.4 363.729 C 687.681 363.956 685.557 366.726 684.962 367.407 C 675.935 377.73 666.361 388.685 667.461 403.324 C 667.673 406.136 668.04 408.876 668.865 411.577 C 670.866 418.132 673.743 435.123 675.687 439.581 C 677.574 443.906 681.971 448.082 684.724 451.967 C 689.352 458.501 693.5 465.503 697.634 472.363 C 699.681 472.866 698.621 472.907 700.799 472.014 L 701.82 473.367 z"/>
<path transform="translate(0,0)" fill="rgb(63,60,57)" d="M 1096.69 742.697 L 1161.19 748.469 L 1163.59 749.667 C 1165.26 757.514 1165.16 766.433 1165.72 774.472 L 1169.03 821.818 L 1174.29 897.548 C 1175.07 909.081 1177.2 922.375 1176.04 933.765 C 1145.56 931.275 1114.23 927.906 1083.69 927.819 C 1103.58 923.459 1126.07 932.73 1145.97 929.889 C 1146.42 929.112 1146.52 929.016 1146.82 928.024 C 1152.18 910.628 1149.16 877.002 1148.76 858.124 C 1148.46 844.086 1150.11 830.051 1149.86 815.975 C 1149.6 801.262 1147.38 786.169 1147.64 771.571 C 1147.74 765.996 1151.63 754.361 1149.04 750.005 C 1142.81 746.389 1104.97 744.332 1095.54 743.709 L 1096.69 742.697 z"/>
<path transform="translate(0,0)" fill="rgb(36,43,52)" d="M 899.999 359.335 C 900.455 365.562 900.961 371.842 900.916 378.09 L 900.907 383.811 C 892.052 380.079 857.559 379.326 844.491 377.188 C 834.695 376.29 824.521 375.893 814.886 373.911 C 820.446 371.709 824.747 374.15 830.384 373.365 C 829.318 372.327 828.339 371.261 827.368 370.133 C 833.221 367.465 889.866 360.112 899.999 359.335 z"/>
<path transform="translate(0,0)" fill="rgb(63,60,57)" d="M 844.491 377.188 C 855.306 375.7 890.618 367.92 899.226 371.673 C 899.854 373.811 900.454 375.909 900.916 378.09 L 900.907 383.811 C 892.052 380.079 857.559 379.326 844.491 377.188 z"/>
<path transform="translate(0,0)" fill="url(#Gradient1)" d="M 1242.43 352.724 C 1260.57 251.209 1350.98 178.752 1454.01 183.16 C 1557.04 187.568 1640.93 267.483 1650.34 370.175 C 1659.74 472.868 1591.76 566.692 1491.24 589.74 C 1390.73 612.789 1288.66 557.959 1252.38 461.429 C 1239.35 426.749 1235.91 389.195 1242.43 352.724 z"/>
<path transform="translate(0,0)" fill="rgb(116,116,114)" d="M 1402.44 482.601 L 1403.66 480.62 L 1407.16 480.045 C 1407.75 482.916 1407.56 484.899 1409.78 486.938 C 1412.33 486.986 1414.87 487.008 1417.42 487.003 L 1421.77 489.533 L 1428.43 486.017 L 1429.95 487.088 L 1430.12 486.592 L 1430.41 488.52 C 1428.34 489.614 1426.43 490.171 1424.19 490.793 C 1423.17 493.461 1423.73 496.926 1421.14 498.531 C 1420.41 498.986 1418.66 499.558 1417.81 499.859 C 1416.71 501.899 1416.46 503.038 1416.45 505.356 C 1418.46 505.313 1419.53 504.837 1421.38 504.101 C 1423.02 505.239 1422.79 505.225 1423.49 506.926 C 1427.31 505.26 1430.18 504.257 1434.33 503.7 L 1434.16 505.493 C 1433.69 505.635 1433.23 505.792 1432.75 505.919 C 1431.02 506.388 1429.68 506.455 1427.9 506.44 C 1427.1 507.26 1426.3 508.077 1425.52 508.915 C 1419.75 515.096 1412.18 517.934 1403.8 518.532 C 1403.21 518.574 1402.62 518.553 1402.03 518.564 C 1400.95 516.427 1400.7 514.754 1400.3 512.437 C 1401.3 509.484 1401.2 509.44 1403.84 507.826 L 1401.28 506.175 C 1395.89 507.658 1398.75 510.872 1391.27 509.229 C 1391.37 511.136 1391.85 512.698 1392.43 514.51 C 1391.06 516.054 1390.59 515.863 1388.59 516.002 C 1387.11 516.105 1387.45 515.982 1385.66 515.362 L 1383.85 513.304 L 1382.54 514.973 C 1381.16 520.842 1380.96 520.559 1375.82 523.802 C 1376.78 525.043 1378.44 527.851 1379.72 528.577 L 1380.11 528.155 L 1379.27 528.132 L 1379.93 528.695 L 1382.49 526.713 C 1382.59 525.373 1382.34 522.883 1383.31 521.998 C 1384.19 524.986 1383.3 528.639 1382 531.44 C 1380.9 533.808 1379.66 534.998 1377.12 535.55 C 1372.15 536.626 1368.21 535.838 1363.36 538.124 C 1362.8 538.385 1362.24 538.627 1361.68 538.888 C 1361.3 539.067 1360.93 539.259 1360.55 539.445 L 1355.72 538.519 C 1350.76 536.203 1344.46 535.569 1340.54 531.366 C 1339.42 530.163 1339.79 530.398 1339.89 528.579 C 1343.08 529.269 1346.03 530.689 1348.93 529.053 C 1350.68 523.953 1349.12 516.779 1350.34 511.064 C 1350.78 509.434 1351.4 507.637 1351.59 505.963 C 1351.92 502.895 1351.62 502.601 1349.81 500.316 C 1354.04 501.109 1356.75 505.1 1359.14 508.573 L 1360.86 509.108 C 1363.17 507.748 1363.74 506.822 1364.98 504.474 L 1366.75 501.163 C 1369.04 501.257 1371.47 500.939 1373.76 500.808 C 1375.19 500.955 1376.43 500.982 1377.87 500.886 C 1379.91 500.751 1379.61 500.444 1380.86 499 L 1381.5 497.83 L 1382.24 497.946 C 1387.86 494.687 1394.8 495.181 1400.1 492.03 C 1400.03 489.195 1399.92 486.824 1401.4 484.292 C 1401.73 483.719 1402.09 483.164 1402.44 482.601 z"/>
<path transform="translate(0,0)" fill="rgb(142,137,123)" d="M 1401.43 497.817 L 1403.67 498.55 C 1405.1 500.802 1405.69 501.203 1405.54 503.824 C 1401.63 505.954 1391.37 506.439 1389.94 509.594 L 1390.7 513.874 L 1389.11 514.753 C 1385.06 512.809 1382.96 511.225 1378.33 511.631 C 1382.67 502.8 1394.55 503.698 1401.43 497.817 z"/>
<path transform="translate(0,0)" fill="rgb(128,127,119)" d="M 1401.43 497.817 C 1402.1 494.862 1401.86 493.488 1404.33 491.621 L 1405.9 492.294 C 1406.36 494.408 1406.75 494.879 1405.38 496.711 C 1404.99 497.237 1404.15 498.06 1403.67 498.55 L 1401.43 497.817 z"/>
<path transform="translate(0,0)" fill="rgb(128,127,119)" d="M 1242.43 352.724 C 1243.81 353.656 1245.06 353.937 1245.45 355.652 C 1247.2 363.23 1246.14 379.07 1247.03 388.192 C 1248.05 398.493 1251.16 408.417 1252.29 418.81 C 1253.08 413.151 1253.75 407.475 1254.29 401.786 C 1255.18 423.748 1256.62 435.162 1262.44 456.264 C 1264.23 462.762 1265.7 469.331 1268.92 475.29 C 1276.07 488.509 1299.88 522.447 1313.64 527.427 C 1315.76 528.192 1316.59 527.82 1318.66 527.239 C 1319.77 525.413 1320.1 524.217 1319.33 521.987 C 1319.13 521.426 1318.72 520.964 1318.42 520.452 C 1318.64 515.242 1317.31 509.934 1318.6 504.837 C 1321.39 503.831 1322.78 506.42 1325.88 506.328 C 1327.03 504.398 1328.15 502.444 1329.22 500.466 L 1331.54 500.294 C 1332.36 500.913 1333.16 501.56 1334.01 502.137 C 1335.95 503.456 1336.78 504.716 1338.15 506.591 L 1338.54 507.826 L 1340.17 507.779 C 1341.03 504.53 1341.89 499.645 1344.89 497.778 L 1347.76 499.194 L 1349.81 500.316 C 1351.62 502.601 1351.92 502.895 1351.59 505.963 C 1351.4 507.637 1350.78 509.434 1350.34 511.064 C 1349.12 516.779 1350.68 523.953 1348.93 529.053 C 1346.03 530.689 1343.08 529.269 1339.89 528.579 C 1339.79 530.398 1339.42 530.163 1340.54 531.366 C 1344.46 535.569 1350.76 536.203 1355.72 538.519 C 1352.21 540.539 1348.62 543.961 1344.33 542.909 C 1342.78 542.529 1343.21 542.676 1342.14 541.55 C 1340.68 540.204 1339.37 538.917 1337.67 537.892 C 1336.06 536.927 1333.71 537.991 1331.98 538.463 C 1329.83 539.05 1329.01 538.172 1327 537.33 L 1322.95 535.752 C 1320.64 536.574 1318.75 537.208 1316.28 537.423 C 1312.04 534.457 1313.24 530.285 1309.35 526.613 C 1269.49 489.043 1267.3 480.024 1253.6 428.113 C 1252.25 423.008 1249.8 418.238 1248.53 413.156 C 1247.43 408.771 1247.39 404.152 1246.34 399.796 C 1245.73 397.212 1244.23 395.152 1243.87 392.391 C 1242.9 385.018 1245.26 365.261 1243.07 360.792 C 1241.57 362.275 1242.74 366.926 1242.42 369.272 C 1241.07 379.281 1240.1 390.999 1241.36 401.078 C 1242.37 409.226 1241.86 417.964 1243.5 425.962 C 1245.01 433.357 1253.4 454.502 1252.7 460.195 C 1252.65 460.617 1252.49 461.018 1252.38 461.429 C 1239.35 426.749 1235.91 389.195 1242.43 352.724 z"/>
<path transform="translate(0,0)" fill="rgb(142,137,123)" d="M 1338.15 506.591 L 1338.54 507.826 L 1340.17 507.779 C 1341.03 504.53 1341.89 499.645 1344.89 497.778 L 1347.76 499.194 L 1349.81 500.316 C 1351.62 502.601 1351.92 502.895 1351.59 505.963 C 1351.4 507.637 1350.78 509.434 1350.34 511.064 C 1348.67 513.54 1347.1 515.744 1344.96 517.837 L 1344.12 519.009 C 1341.04 519.904 1338.62 518.805 1335.52 518.079 L 1335.7 514.083 C 1334.95 513.019 1334.49 512.409 1333.81 511.227 C 1332.46 508.854 1332.08 507.731 1332.81 505.123 C 1335.43 504.716 1335.86 505.436 1338.15 506.591 z"/>
<path transform="translate(0,0)" fill="rgb(147,140,125)" d="M 1335.52 518.079 L 1337.24 514.483 C 1339.6 513.934 1340.72 513.592 1342.95 515.011 C 1343.98 515.666 1344.52 516.763 1344.96 517.837 L 1344.12 519.009 C 1341.04 519.904 1338.62 518.805 1335.52 518.079 z"/>
<path transform="translate(0,0)" fill="rgb(128,127,119)" d="M 1434.16 505.493 L 1434.67 506.075 C 1435.73 505.291 1436.8 504.523 1437.83 503.701 C 1440.77 501.331 1443.17 498.541 1443.54 494.666 C 1441.76 492.589 1441.27 492.769 1438.54 492.211 L 1437.53 494.181 L 1436.22 494.01 L 1436.34 489.664 C 1434.22 486.426 1432.89 484.587 1433.22 480.57 C 1434.52 478.497 1435.78 476.488 1436.44 474.108 C 1437.12 471.631 1437.52 468.731 1436.26 466.42 C 1432.14 466.372 1428.48 465.853 1424.46 464.962 L 1424.33 464.385 L 1425.42 465.284 C 1426.69 462.616 1431.21 464.924 1433.82 462.955 L 1432.33 461.585 C 1429.21 461.495 1428.63 461.751 1425.84 463.218 L 1425.27 462.523 C 1427.27 459.24 1429.91 459.023 1433.42 457.776 L 1436.5 461.07 L 1437.08 460.723 C 1436.12 458.134 1436.02 457.639 1433.87 455.966 C 1435.27 454.327 1436.59 452.457 1437.11 450.323 C 1437.69 447.951 1436.67 444.106 1435.14 442.146 C 1433.39 439.896 1432.62 439.873 1429.99 439.498 C 1425.88 440.615 1422.88 443.59 1419.64 446.237 L 1418.43 445.825 C 1420.19 441.936 1419.69 436.678 1419.27 432.535 L 1418.32 431.959 L 1415.36 433.901 L 1414.79 432.477 L 1415.8 430.455 C 1417.54 429.922 1418.82 429.503 1420.4 428.57 C 1418.65 425.796 1417.47 425.085 1414.67 423.631 C 1412.84 425.172 1411.2 426.776 1409.53 428.485 C 1405.36 428.8 1398.3 428.754 1394.59 426.538 C 1398.59 426.206 1399.18 426.708 1401.99 423.634 L 1403.27 423.636 L 1403.48 426.778 L 1405.44 426.763 C 1405.62 426.652 1405.8 426.531 1405.98 426.428 C 1408.87 424.821 1410.91 423.665 1412.2 420.585 C 1410.77 418.516 1409.52 416.372 1408.26 414.198 L 1408.69 413.066 L 1411.02 414.994 C 1413.2 418.345 1415.04 421.756 1418.39 424.057 C 1420.49 425.569 1421.64 427.13 1423.17 429.178 C 1427.58 429.105 1432.14 428.49 1436.17 430.544 C 1436.93 431.937 1437.83 433.363 1438.39 434.856 C 1439.42 440.38 1442.4 445.217 1442.88 450.857 L 1443.38 452.436 C 1440.64 455.949 1439.5 456.366 1439.71 460.95 C 1441.69 461.122 1442.05 460.173 1443.55 458.97 C 1442.78 463.274 1435.55 463.968 1439.34 469.444 C 1440.16 470.62 1441.68 471.741 1442.77 472.694 L 1443.21 474.92 C 1442.22 475.84 1441.23 476.749 1440.23 477.647 C 1444.78 484.021 1448.98 491.319 1453.79 497.356 C 1449.49 501.302 1447.21 504.037 1441.04 504.274 C 1433.4 507.89 1432.5 515.579 1426.59 519.406 C 1421.34 522.808 1414.99 519.118 1410.14 521.912 C 1404.29 520.066 1401.46 521.015 1395.92 523.177 L 1395.16 524.112 C 1393.63 524.285 1392.97 524.199 1391.51 523.873 C 1394.87 521.3 1398.74 521.492 1402.03 518.564 C 1402.62 518.553 1403.21 518.574 1403.8 518.532 C 1412.18 517.934 1419.75 515.096 1425.52 508.915 C 1426.3 508.077 1427.1 507.26 1427.9 506.44 C 1429.68 506.455 1431.02 506.388 1432.75 505.919 C 1433.23 505.792 1433.69 505.635 1434.16 505.493 z"/>
<path transform="translate(0,0)" fill="rgb(142,137,123)" d="M 1423.17 429.178 C 1427.58 429.105 1432.14 428.49 1436.17 430.544 C 1436.93 431.937 1437.83 433.363 1438.39 434.856 C 1439.42 440.38 1442.4 445.217 1442.88 450.857 C 1441.93 452.498 1441.67 452.757 1440.03 453.935 C 1438.47 448.698 1437.22 443.193 1433.57 439 C 1430.96 438.096 1429.22 438.412 1426.58 438.867 L 1425.56 439.052 L 1426.25 438.101 L 1423.45 439.536 C 1423.21 436.54 1425.91 433.274 1427.43 430.63 C 1425.29 430.551 1424.98 430.351 1423.17 429.178 z"/>
<path transform="translate(0,0)" fill="rgb(142,137,123)" d="M 1441.04 504.274 C 1443 500.861 1445.62 497.234 1445.23 493.273 L 1439.93 488.971 C 1438.39 485.613 1439.69 481.195 1440.23 477.647 C 1444.78 484.021 1448.98 491.319 1453.79 497.356 C 1449.49 501.302 1447.21 504.037 1441.04 504.274 z"/>
<path transform="translate(0,0)" fill="rgb(103,106,106)" d="M 1402.44 482.601 L 1402.09 481.094 L 1398.35 479.019 L 1399.1 478.245 L 1400.71 478.251 L 1400.57 477.35 C 1406.21 473.77 1414.66 469.267 1418.35 463.703 C 1419.85 461.441 1419.78 460.277 1419.37 457.682 C 1417.8 456.194 1417.28 455.714 1415.03 455.399 C 1409.74 454.658 1402.59 456.889 1398.4 460.097 C 1397.86 462.6 1397.85 465.166 1397.73 467.717 L 1396.82 467.405 C 1396.34 464.149 1396.06 460.93 1395.84 457.648 C 1392.99 456.774 1391.65 457.087 1388.84 457.738 C 1387.55 458.851 1386.62 459.582 1385.08 460.363 L 1382.09 458.19 C 1380.55 459.705 1381.79 468.231 1381.3 471.435 L 1379.97 472.384 C 1378.67 470.282 1380.22 465.71 1380.7 463.168 C 1380.32 462.493 1379.94 461.839 1379.61 461.132 C 1378.52 458.752 1378.18 458.423 1378.99 456.047 C 1381.92 455.453 1381.83 455.678 1384.43 457.229 C 1386.64 457.43 1387.55 457.435 1389.48 456.3 C 1388.88 453.916 1388.63 454.059 1386.93 452.475 C 1384.61 452.413 1382.86 452.191 1380.65 451.459 C 1379.85 450.203 1379.21 449.059 1378.61 447.679 C 1378.42 447.241 1378.25 446.797 1378.07 446.356 C 1374.14 445.262 1367.67 445.188 1363.87 446.632 C 1365.46 449.1 1370.89 450.644 1373.67 452.373 C 1375.43 456.004 1372.56 455.796 1373.11 459.488 C 1376.62 460.509 1378.59 461.806 1380.48 464.97 L 1379.66 465.753 C 1377.92 464.461 1376.25 463.083 1374.2 462.299 C 1372.95 461.818 1371.98 461.34 1370.83 460.643 C 1370.22 457.704 1370.68 457.323 1371.93 454.538 C 1370.44 452.983 1371.15 453.396 1369.25 452.623 C 1366.55 451.527 1364.03 450.796 1361.86 448.766 C 1361.39 448.333 1361.05 447.747 1360.5 447.431 C 1359.24 446.713 1354.25 448.056 1352.51 447.899 C 1348.19 447.51 1343.6 445.517 1339.65 443.793 L 1339.36 442.787 C 1342.99 441.675 1349.62 445.204 1353.09 446.548 L 1353.81 445.482 L 1352.66 442.661 C 1346.34 439.659 1339.98 432.375 1336.36 426.437 C 1340.53 430.724 1345.06 436.284 1350.23 439.295 C 1353.23 441.025 1356.26 442.724 1359.3 444.392 C 1366.58 443.252 1374.05 442.232 1380.46 446.505 C 1382.13 447.612 1382.89 448.301 1384.95 448.595 C 1386.67 448.84 1388.13 448.907 1389.82 449.417 C 1394.11 450.705 1391.96 452.144 1393.36 454.998 C 1397.14 455.875 1401.17 455.564 1404.96 454.828 C 1408.65 454.113 1411.93 453.043 1414.12 449.829 L 1411.14 446.699 L 1411.26 445.92 C 1411.88 445.97 1412.5 446.009 1413.12 446.069 C 1417.75 446.525 1424.36 448.568 1427.25 452.464 C 1428.27 453.839 1427.82 454.469 1427.66 456.047 C 1424.66 459.277 1421.07 462.518 1420.14 466.953 C 1421.09 468.752 1421.42 469.76 1421.43 471.799 L 1419.94 473.137 C 1416.76 473.26 1412.93 473.327 1409.92 474.42 C 1407.63 475.249 1405.78 476.202 1404.93 478.461 L 1407.16 480.045 L 1403.66 480.62 L 1402.44 482.601 z"/>
<path transform="translate(0,0)" fill="rgb(147,140,125)" d="M 1453.79 497.356 C 1451.68 502.104 1445.59 510.546 1441 512.985 C 1438.72 512.845 1437.49 512.22 1435.52 511.113 C 1431.98 515.569 1425.07 522.145 1424.93 527.884 C 1425.18 528.138 1425.44 528.387 1425.69 528.646 C 1426.7 529.694 1426.38 529.215 1426.87 530.446 L 1425.76 531.405 L 1422.37 529.617 C 1421.8 531.458 1421.38 533.191 1421.08 535.095 C 1421.52 535.419 1421.96 535.727 1422.39 536.067 C 1423.86 537.252 1424.24 537.759 1424.9 539.446 L 1424.31 540.883 L 1419.64 542.007 L 1418.58 541.177 C 1418.69 538.267 1418.85 537.868 1417.3 535.455 C 1413.93 533.623 1410.8 534.815 1407.34 533.789 C 1401.68 532.109 1394.68 537.07 1388.94 535.411 C 1389.88 532.402 1392.01 530.331 1393.97 527.911 L 1395.16 524.112 L 1395.92 523.177 C 1401.46 521.015 1404.29 520.066 1410.14 521.912 C 1414.99 519.118 1421.34 522.808 1426.59 519.406 C 1432.5 515.579 1433.4 507.89 1441.04 504.274 C 1447.21 504.037 1449.49 501.302 1453.79 497.356 z"/>
<path transform="translate(0,0)" fill="rgb(142,137,123)" d="M 1395.16 524.112 L 1395.92 523.177 C 1401.46 521.015 1404.29 520.066 1410.14 521.912 C 1404.76 526.47 1400.43 526.286 1393.97 527.911 L 1395.16 524.112 z"/>
<path transform="translate(0,0)" fill="rgb(147,140,125)" d="M 1411.02 414.994 C 1415.72 409.178 1414.42 400.318 1421.05 395.582 L 1422.49 396.912 C 1425.12 398.949 1430 401.958 1430.63 405.356 C 1428.54 407.04 1426.56 407.711 1424.07 408.546 C 1423.21 409.97 1422.58 410.894 1422.24 412.541 L 1421.06 414.65 C 1422.72 416.994 1424.44 416.089 1425.7 418.993 C 1424.64 420.782 1423.51 422.125 1422.08 423.625 L 1422.19 425.313 C 1425.87 426.849 1429.91 428.459 1433.88 427.298 C 1435.55 426.285 1437.03 425.247 1438.91 424.681 L 1440.57 426.163 L 1441.17 424.573 L 1436.82 423.442 L 1437.63 421.83 C 1441.91 421.884 1448.41 423.572 1451.92 426.007 C 1447.83 427.823 1442.49 427.812 1438.05 428.277 C 1438.18 430.347 1439.6 431.852 1441.11 433.248 C 1442.39 434.444 1443.96 435.442 1445.41 436.43 C 1443.05 435.966 1440.73 435.432 1438.39 434.856 C 1437.83 433.363 1436.93 431.937 1436.17 430.544 C 1432.14 428.49 1427.58 429.105 1423.17 429.178 C 1421.64 427.13 1420.49 425.569 1418.39 424.057 C 1415.04 421.756 1413.2 418.345 1411.02 414.994 z"/>
<path transform="translate(0,0)" fill="rgb(142,137,123)" d="M 1411.02 414.994 C 1415.72 409.178 1414.42 400.318 1421.05 395.582 L 1422.49 396.912 C 1424.43 399.881 1426.26 401.344 1425.86 404.938 C 1422.23 408.771 1417.88 412.429 1417.73 418.132 C 1417.68 420.089 1418.06 422.133 1418.39 424.057 C 1415.04 421.756 1413.2 418.345 1411.02 414.994 z"/>
<path transform="translate(0,0)" fill="rgb(116,116,114)" d="M 1318.42 520.452 C 1317.23 515.75 1312.92 512.351 1313.42 507.678 C 1312.2 507.231 1311.09 506.762 1309.92 506.218 C 1309.35 505.12 1309.18 504.958 1308.96 503.58 C 1308.24 499.159 1311.58 493.027 1314.2 489.698 L 1315.08 492.152 L 1316.97 492.03 L 1316.09 492.781 L 1319.49 491.392 C 1322.64 492.144 1325.51 494.246 1328.26 495.91 C 1327.06 498.85 1322.27 497.963 1320.51 500.59 C 1322.16 502.455 1322.93 504.029 1325.4 504.665 L 1326.41 503.399 L 1325.85 498.542 C 1328.45 498.646 1330.91 498.952 1333.33 497.796 C 1333.73 497.601 1334.09 497.318 1334.48 497.079 L 1335.26 496.72 C 1335.82 497.082 1336.35 497.482 1336.93 497.804 C 1338.84 498.865 1339.45 499.397 1341.48 498.649 L 1343.35 493.044 L 1345.23 492.388 L 1347.76 499.194 L 1344.89 497.778 C 1341.89 499.645 1341.03 504.53 1340.17 507.779 L 1338.54 507.826 L 1338.15 506.591 C 1336.78 504.716 1335.95 503.456 1334.01 502.137 C 1333.16 501.56 1332.36 500.913 1331.54 500.294 L 1329.22 500.466 C 1328.15 502.444 1327.03 504.398 1325.88 506.328 C 1322.78 506.42 1321.39 503.831 1318.6 504.837 C 1317.31 509.934 1318.64 515.242 1318.42 520.452 z"/>
<path transform="translate(0,0)" fill="rgb(87,96,99)" d="M 1358.85 503.265 L 1360.98 501.33 C 1361.07 497.656 1363.48 494.683 1365.4 491.68 L 1364.76 490.633 L 1359.39 491.922 C 1357.78 491.438 1356.61 491.233 1354.96 491.077 L 1354.12 492.022 C 1354.88 494.165 1355.49 496.224 1355.97 498.446 L 1355.13 498.625 C 1353.58 496.105 1352.27 493.985 1351.59 491.059 L 1352.74 489.494 C 1354.28 489.086 1355.79 488.717 1357.26 488.093 C 1358.64 487.509 1359.37 485.413 1359.79 483.989 C 1360.49 481.63 1360.54 479.431 1359.39 477.231 C 1358.72 477.269 1358.05 477.228 1357.39 477.346 C 1356.81 477.45 1356.26 477.709 1355.7 477.891 L 1357.25 476.085 C 1360.76 475.229 1363.48 474.57 1366.43 472.441 C 1363.66 468.329 1361.07 462.63 1359.26 457.998 C 1358.27 455.469 1358.59 454.716 1359.34 452.271 L 1360.58 451.962 C 1361.65 459.895 1369.09 466.082 1367.37 474.64 C 1364.92 476.666 1362.19 478.305 1362.32 481.889 C 1362.41 483.964 1364.01 486.761 1365.19 488.367 L 1366.59 487.637 C 1366.76 485.477 1366.9 483.817 1367.8 481.828 L 1369.48 482.265 C 1372.85 487.917 1373.12 494.408 1373.76 500.808 C 1371.47 500.939 1369.04 501.257 1366.75 501.163 C 1364.04 500.558 1361.42 502.259 1358.85 503.265 z"/>
<path transform="translate(0,0)" fill="rgb(142,137,123)" d="M 1422.24 412.541 L 1424.23 412.697 C 1430.29 413.137 1436.07 409.37 1441.75 412.675 L 1442.35 414.238 C 1439.34 418.149 1434.49 421.307 1433.62 426.257 L 1433.88 427.298 C 1429.91 428.459 1425.87 426.849 1422.19 425.313 L 1422.08 423.625 C 1423.51 422.125 1424.64 420.782 1425.7 418.993 C 1424.44 416.089 1422.72 416.994 1421.06 414.65 L 1422.24 412.541 z"/>
<path transform="translate(0,0)" fill="rgb(103,106,106)" d="M 1334.48 497.079 C 1334.23 496.884 1333.98 496.686 1333.73 496.495 C 1331.19 494.563 1329.7 493.882 1326.55 493.401 L 1330.58 491.445 C 1330.82 488.851 1331.01 487.348 1330.02 484.864 L 1327.02 482.606 L 1325.78 482.935 C 1324.96 485.66 1324.94 488.261 1322.45 489.776 C 1321.25 488.073 1321.43 488.951 1321.78 486.793 C 1322.27 483.799 1323.59 481.151 1326.09 479.373 C 1328.14 477.925 1333.99 477.873 1336.4 478.715 C 1337.78 479.198 1338.09 479.486 1339.21 480.221 C 1341.29 485.951 1334.75 491.255 1340.08 493.721 C 1340.52 493.924 1340.97 494.098 1341.42 494.287 L 1341.51 493.997 L 1340.04 495.818 C 1337.37 495.404 1337.44 495.191 1335.26 496.72 L 1334.48 497.079 z"/>
<path transform="translate(0,0)" fill="rgb(142,137,123)" d="M 1327 537.33 C 1329.01 538.172 1329.83 539.05 1331.98 538.463 C 1333.71 537.991 1336.06 536.927 1337.67 537.892 C 1339.37 538.917 1340.68 540.204 1342.14 541.55 L 1338.55 543.719 C 1343.54 547.522 1348.46 551.431 1353.28 555.444 L 1351.91 556.368 C 1347.12 554.165 1344.17 553.486 1341.82 548.588 L 1339.62 547.987 C 1337.94 548.968 1336.28 549.947 1334.53 550.804 C 1331.42 549.923 1330.68 549.034 1328.74 546.633 C 1329.1 544.392 1328.61 545.409 1330.35 543.664 C 1327.96 543.536 1326.45 543.051 1324.27 542.064 L 1323.76 540.626 L 1325.1 539.666 L 1327.42 541.212 L 1328.38 539.44 L 1327 537.33 z"/>
<path transform="translate(0,0)" fill="rgb(103,106,106)" d="M 1380.86 499 C 1378.96 498.194 1377.51 497.232 1375.86 496.009 C 1375.33 493.486 1375.37 493.603 1376.68 491.363 C 1379.43 489.554 1381.04 489.085 1384.34 488.835 C 1384.67 488.81 1385 488.794 1385.33 488.773 C 1386.43 486.811 1386.35 485.614 1386.24 483.399 C 1384.09 480.867 1382.08 480.813 1378.94 479.897 L 1378.09 478.269 C 1380.18 474.921 1384.07 473.786 1387.46 471.779 C 1387.73 469.746 1387.94 467.711 1388.14 465.671 L 1389.04 466.674 C 1390.19 472.016 1389.42 472.743 1387.7 477.723 C 1386.79 480.363 1386.98 482.823 1388.19 485.272 C 1390.06 484.508 1391.57 481.766 1392.82 480.141 C 1393.1 479.788 1393.54 479.6 1393.91 479.346 C 1394.09 481.72 1394.44 483.52 1393.13 485.664 C 1391.36 488.559 1388.79 489.199 1385.72 490.051 C 1383.22 490.747 1380.98 491.478 1378.6 492.512 L 1378.09 494.495 C 1379.33 495.975 1378.73 495.361 1380.31 496.782 L 1381.5 497.83 L 1380.86 499 z"/>
<path transform="translate(0,0)" fill="rgb(103,106,106)" d="M 1345.23 492.388 L 1343.11 490.455 C 1342.75 490.763 1341.28 491.904 1341.09 492.292 L 1339.68 490.151 C 1342.44 488.838 1344.48 488.136 1347.5 487.672 L 1348.73 488.156 C 1348.08 489.42 1347.41 490.65 1346.69 491.873 C 1347.45 496.013 1350.95 498.547 1354.26 500.807 C 1355.7 501.793 1357.22 502.648 1358.85 503.265 C 1361.42 502.259 1364.04 500.558 1366.75 501.163 L 1364.98 504.474 C 1363.74 506.822 1363.17 507.748 1360.86 509.108 L 1359.14 508.573 C 1356.75 505.1 1354.04 501.109 1349.81 500.316 L 1347.76 499.194 L 1345.23 492.388 z"/>
<path transform="translate(0,0)" fill="rgb(147,140,125)" d="M 1496.94 274.108 C 1498.5 273.588 1499.86 272.38 1501.2 271.431 C 1505.77 271.374 1516.39 269.169 1519.95 269.933 C 1520.99 270.156 1521.72 271.113 1522.6 271.704 C 1523.16 275.487 1523.63 279.31 1524.42 283.052 C 1528.39 281.69 1532.14 279.987 1536.24 281.869 C 1537.78 282.571 1537.82 282.79 1539.11 283.937 C 1545.64 285.574 1544.25 289.666 1549.06 291.609 L 1551.94 288.807 L 1553.7 289.431 C 1553.92 292.772 1550.68 292.725 1551.98 295.992 C 1554.25 297.712 1556.3 298.912 1558.87 300.167 C 1562.96 302.168 1565.43 304.192 1567.66 308.205 L 1568.48 310.549 C 1566.01 318.131 1563.94 324.592 1558.73 330.818 C 1560.66 332.11 1562.39 333.169 1564.48 334.163 C 1574.24 338.785 1573.29 351.806 1587.5 351.438 L 1590.73 353.472 C 1592.56 354.27 1594.37 355.055 1596.22 355.815 C 1600.88 357.738 1604.85 360.803 1609.63 362.708 C 1609.7 362.736 1609.75 362.796 1609.82 362.839 C 1612.56 368.069 1613.71 374.015 1617.26 378.738 C 1620.19 378.704 1620.47 376.127 1623.35 376.139 C 1623.36 377.807 1623.39 379.471 1623.37 381.139 C 1623.35 383.653 1623.34 384.987 1624.82 387.168 C 1626.59 388.316 1628.05 389.325 1630.11 389.842 L 1629.38 388.66 L 1631.39 389.906 C 1632.46 388.012 1632.41 386.57 1632.45 384.428 L 1633.65 384.016 C 1633.66 385.97 1633.52 387.445 1633.3 389.368 C 1633 392.074 1634.1 394.568 1634.98 397.083 L 1636.42 398.143 C 1637 397.908 1637.57 397.64 1638.17 397.437 C 1638.63 397.279 1639.11 397.188 1639.58 397.064 L 1639.09 399.204 C 1636.77 399.76 1636.67 399.658 1634.74 398.344 C 1628.88 394.337 1624.91 387.536 1619.43 383.065 C 1617.57 381.546 1614.64 380.455 1613.24 378.479 C 1611.9 376.58 1611.55 373.497 1610.97 371.28 C 1610.39 369.051 1609.6 367.521 1608.42 365.569 L 1606.99 365.1 C 1604.9 366.925 1602.75 369.377 1599.98 370.017 L 1598.54 369.097 C 1598.01 366.421 1597.43 363.855 1596.62 361.244 L 1595.06 360.776 L 1593.22 361.96 C 1595.84 363.678 1597.03 363.967 1597.86 367.289 C 1599.07 372.164 1597.6 378.943 1595.83 383.544 L 1593.6 382.606 L 1595.2 384.467 L 1596.17 382.835 L 1593.57 382.5 L 1592.87 377.331 C 1590.41 377.628 1587.59 380.097 1585.64 381.601 C 1588.45 381.228 1589.83 380.537 1592.33 381.994 C 1593.07 385.775 1591.17 390.68 1589.04 393.852 C 1585.8 398.663 1579.35 400.102 1580.5 406.98 C 1580.83 408.987 1581.34 410.977 1581.84 412.947 L 1580.43 414.657 L 1577.82 414.617 C 1571.54 412.462 1564.18 412.069 1558.69 408.063 C 1555.18 405.419 1550.87 402.758 1547.84 399.627 C 1545.7 397.421 1545.8 395.716 1545.78 392.806 C 1540.83 388.328 1526.87 392.464 1519.93 390.818 C 1504.73 387.215 1501.2 372.237 1493.94 360.838 C 1487.51 350.739 1475.9 352.261 1465.67 350.25 C 1462.54 349.632 1461.51 349.964 1458.98 351.625 C 1459.29 353.492 1459.37 353.75 1460.86 354.87 C 1462.86 356.376 1464.31 357.531 1465.82 359.604 C 1465.85 360.458 1465.88 362.453 1466.09 363.242 C 1467.61 368.999 1483.34 364.194 1487.85 367.462 C 1486.74 368.232 1485.7 368.86 1484.38 369.223 C 1479.36 370.606 1473.65 369.394 1469.21 366.818 C 1465.09 364.427 1459.63 358.79 1458.66 353.966 C 1458.2 351.698 1458.62 351.28 1459.74 349.415 C 1466.52 346.269 1477.75 350.18 1484.87 351.771 C 1484.65 350.411 1484.27 349.131 1483.9 347.806 C 1481.2 345.161 1479.24 344.234 1475.54 343.388 C 1475.18 343.304 1474.81 343.231 1474.44 343.153 C 1474.56 342.915 1474.61 342.622 1474.8 342.438 C 1475.25 342.013 1475.81 341.727 1476.31 341.371 L 1474.31 337.885 C 1476.21 337.754 1475.72 337.575 1477.22 338.091 C 1478.49 338.529 1479.72 339.081 1481 339.501 C 1483.58 340.345 1484.52 340.857 1486.97 339.564 C 1488.17 335.401 1485.4 327.759 1485.36 323.035 C 1485.35 322.641 1485.36 322.248 1485.36 321.854 C 1482.38 319.065 1480.12 315.768 1476.81 313.305 L 1472.57 316.604 C 1467.13 315.321 1458.08 318.251 1452.79 319.81 C 1450.99 318.597 1449.12 317.928 1447.12 317.123 C 1447.43 316.213 1447.97 315.343 1448.41 314.492 C 1455.06 312.311 1461.45 317.544 1468.35 315.559 C 1470.87 314.832 1473.1 314.523 1474.38 312.134 L 1473.87 311.7 C 1471.96 311.441 1470.79 311.297 1469.03 310.428 C 1470.32 308.404 1471.36 309.44 1473.38 308.709 C 1475.89 307.801 1480.61 302.972 1482.99 301.21 C 1483.06 301.036 1483.09 300.844 1483.2 300.688 C 1486.09 296.481 1492.19 292.602 1497.04 291.192 L 1498.3 292.074 C 1499.11 294.928 1499.69 297.599 1502.06 299.589 C 1502.55 300.009 1503.08 300.398 1503.59 300.802 C 1505.78 298.706 1507.75 298.243 1508.97 295.139 C 1509.03 292.059 1507.42 290.467 1505.65 288.142 L 1504.83 287.096 C 1504.33 283.157 1507.39 277.38 1508.67 273.512 C 1507.43 274.341 1506.26 275.211 1505.07 276.12 L 1503.4 275.427 L 1503.47 271.758 C 1503.19 271.901 1502.91 272.023 1502.65 272.188 C 1499.97 273.879 1499.33 275.754 1498.77 278.704 C 1498.7 279.056 1498.32 281.253 1498.17 281.647 C 1497.17 284.266 1496.5 284.404 1494.1 285.301 L 1493.13 284.581 C 1496.11 280.492 1494.39 278.149 1496.94 274.108 z"/>
<path transform="translate(0,0)" fill="rgb(87,96,99)" d="M 1496.94 274.108 C 1498.5 273.588 1499.86 272.38 1501.2 271.431 C 1505.77 271.374 1516.39 269.169 1519.95 269.933 C 1520.99 270.156 1521.72 271.113 1522.6 271.704 C 1523.16 275.487 1523.63 279.31 1524.42 283.052 C 1528.39 281.69 1532.14 279.987 1536.24 281.869 C 1537.78 282.571 1537.82 282.79 1539.11 283.937 C 1545.64 285.574 1544.25 289.666 1549.06 291.609 L 1551.94 288.807 L 1553.7 289.431 C 1553.92 292.772 1550.68 292.725 1551.98 295.992 C 1554.25 297.712 1556.3 298.912 1558.87 300.167 C 1562.96 302.168 1565.43 304.192 1567.66 308.205 L 1568.48 310.549 C 1566.01 318.131 1563.94 324.592 1558.73 330.818 C 1553.19 339.482 1555.15 343.897 1547.09 351.936 C 1546.97 353.681 1546.9 354.411 1545.82 355.874 C 1544.13 358.164 1539.23 358.85 1536.55 359.196 C 1523.03 360.945 1519.28 353.043 1510.79 350.894 C 1508.77 350.384 1509.47 351.564 1507.4 349.914 C 1501.64 345.66 1496.95 350.41 1492.12 348.01 C 1488.03 341.51 1491.33 333.504 1492.75 326.558 C 1490.25 320.812 1483.65 316.938 1478.93 312.965 L 1476.81 313.305 L 1472.57 316.604 C 1467.13 315.321 1458.08 318.251 1452.79 319.81 C 1450.99 318.597 1449.12 317.928 1447.12 317.123 C 1447.43 316.213 1447.97 315.343 1448.41 314.492 C 1455.06 312.311 1461.45 317.544 1468.35 315.559 C 1470.87 314.832 1473.1 314.523 1474.38 312.134 L 1473.87 311.7 C 1471.96 311.441 1470.79 311.297 1469.03 310.428 C 1470.32 308.404 1471.36 309.44 1473.38 308.709 C 1475.89 307.801 1480.61 302.972 1482.99 301.21 C 1483.06 301.036 1483.09 300.844 1483.2 300.688 C 1486.09 296.481 1492.19 292.602 1497.04 291.192 L 1498.3 292.074 C 1499.11 294.928 1499.69 297.599 1502.06 299.589 C 1502.55 300.009 1503.08 300.398 1503.59 300.802 C 1505.78 298.706 1507.75 298.243 1508.97 295.139 C 1509.03 292.059 1507.42 290.467 1505.65 288.142 L 1504.83 287.096 C 1504.33 283.157 1507.39 277.38 1508.67 273.512 C 1507.43 274.341 1506.26 275.211 1505.07 276.12 L 1503.4 275.427 L 1503.47 271.758 C 1503.19 271.901 1502.91 272.023 1502.65 272.188 C 1499.97 273.879 1499.33 275.754 1498.77 278.704 C 1498.7 279.056 1498.32 281.253 1498.17 281.647 C 1497.17 284.266 1496.5 284.404 1494.1 285.301 L 1493.13 284.581 C 1496.11 280.492 1494.39 278.149 1496.94 274.108 z"/>
<path transform="translate(0,0)" fill="rgb(103,106,106)" d="M 1524.42 283.052 C 1528.39 281.69 1532.14 279.987 1536.24 281.869 C 1537.78 282.571 1537.82 282.79 1539.11 283.937 C 1545.64 285.574 1544.25 289.666 1549.06 291.609 L 1551.94 288.807 L 1553.7 289.431 C 1553.92 292.772 1550.68 292.725 1551.98 295.992 C 1554.25 297.712 1556.3 298.912 1558.87 300.167 C 1562.96 302.168 1565.43 304.192 1567.66 308.205 L 1568.48 310.549 C 1566.01 318.131 1563.94 324.592 1558.73 330.818 C 1553.19 339.482 1555.15 343.897 1547.09 351.936 C 1546.97 353.681 1546.9 354.411 1545.82 355.874 C 1544.13 358.164 1539.23 358.85 1536.55 359.196 C 1523.03 360.945 1519.28 353.043 1510.79 350.894 C 1508.77 350.384 1509.47 351.564 1507.4 349.914 C 1501.64 345.66 1496.95 350.41 1492.12 348.01 C 1488.03 341.51 1491.33 333.504 1492.75 326.558 C 1490.25 320.812 1483.65 316.938 1478.93 312.965 L 1476.81 313.305 L 1472.57 316.604 C 1467.13 315.321 1458.08 318.251 1452.79 319.81 C 1450.99 318.597 1449.12 317.928 1447.12 317.123 C 1447.43 316.213 1447.97 315.343 1448.41 314.492 C 1455.06 312.311 1461.45 317.544 1468.35 315.559 C 1470.87 314.832 1473.1 314.523 1474.38 312.134 L 1473.87 311.7 C 1471.96 311.441 1470.79 311.297 1469.03 310.428 C 1470.32 308.404 1471.36 309.44 1473.38 308.709 C 1475.89 307.801 1480.61 302.972 1482.99 301.21 C 1483.06 301.036 1483.09 300.844 1483.2 300.688 C 1486.09 296.481 1492.19 292.602 1497.04 291.192 L 1498.3 292.074 C 1499.11 294.928 1499.69 297.599 1502.06 299.589 C 1502.55 300.009 1503.08 300.398 1503.59 300.802 L 1504.44 303.12 L 1509.3 303.46 C 1505.52 304.551 1502 305.342 1498.84 307.797 C 1496.81 311.462 1497.35 314.657 1498.31 318.594 C 1499.76 324.571 1502.72 329.901 1506.48 334.721 C 1519.89 351.874 1532.28 333.774 1547.8 343.738 C 1549.9 345.083 1548.73 344.665 1551.13 345.011 C 1552.66 339.604 1548.46 333.835 1550.74 327.833 C 1552.06 324.369 1554.45 323.087 1557.59 321.515 C 1559.96 320.324 1561.99 319.189 1564.14 317.636 C 1564.97 315.51 1565.38 314.975 1564.51 312.724 C 1563.06 308.988 1558.59 303.859 1554.81 302.388 C 1550.48 300.704 1546.69 298.975 1542.73 296.498 C 1538.76 287.925 1535.24 292.379 1528.52 288.912 C 1525.87 287.543 1525.32 285.695 1524.42 283.052 z"/>
<path transform="translate(0,0)" fill="rgb(116,116,114)" d="M 1482.99 301.21 C 1483.32 301.018 1483.65 300.831 1483.98 300.633 C 1488.06 298.151 1491.49 294.927 1496.09 293.385 L 1497.63 294.143 C 1497.83 300.932 1501.53 301.563 1497.1 308.137 C 1495.68 310.24 1494.22 312.349 1493.01 314.585 C 1493 318.52 1493.27 322.664 1492.75 326.558 C 1490.25 320.812 1483.65 316.938 1478.93 312.965 L 1476.81 313.305 L 1472.57 316.604 C 1467.13 315.321 1458.08 318.251 1452.79 319.81 C 1450.99 318.597 1449.12 317.928 1447.12 317.123 C 1447.43 316.213 1447.97 315.343 1448.41 314.492 C 1455.06 312.311 1461.45 317.544 1468.35 315.559 C 1470.87 314.832 1473.1 314.523 1474.38 312.134 L 1473.87 311.7 C 1471.96 311.441 1470.79 311.297 1469.03 310.428 C 1470.32 308.404 1471.36 309.44 1473.38 308.709 C 1475.89 307.801 1480.61 302.972 1482.99 301.21 z"/>
<path transform="translate(0,0)" fill="rgb(116,116,114)" d="M 1507.4 349.914 L 1509.33 348.576 L 1508.34 345.823 C 1510.95 343.691 1515.77 344.478 1519.17 344.803 C 1520.96 344.975 1522.72 345.278 1524.48 345.632 C 1525.22 347.366 1524.92 347.437 1524.51 349.187 C 1529.34 349.818 1530.63 345.706 1535.04 350.826 C 1536.14 352.093 1537.04 353.674 1537.93 355.087 L 1540.56 356.314 C 1542.85 355.435 1543.36 354.456 1545.21 352.998 C 1545.82 352.514 1546.41 352.263 1547.09 351.936 C 1546.97 353.681 1546.9 354.411 1545.82 355.874 C 1544.13 358.164 1539.23 358.85 1536.55 359.196 C 1523.03 360.945 1519.28 353.043 1510.79 350.894 C 1508.77 350.384 1509.47 351.564 1507.4 349.914 z"/>
<path transform="translate(0,0)" fill="rgb(128,127,119)" d="M 1476.81 313.305 L 1478.93 312.965 C 1483.65 316.938 1490.25 320.812 1492.75 326.558 C 1491.33 333.504 1488.03 341.51 1492.12 348.01 C 1496.95 350.41 1501.64 345.66 1507.4 349.914 C 1509.47 351.564 1508.77 350.384 1510.79 350.894 C 1519.28 353.043 1523.03 360.945 1536.55 359.196 C 1539.23 358.85 1544.13 358.164 1545.82 355.874 C 1546.9 354.411 1546.97 353.681 1547.09 351.936 C 1555.15 343.897 1553.19 339.482 1558.73 330.818 C 1560.66 332.11 1562.39 333.169 1564.48 334.163 C 1574.24 338.785 1573.29 351.806 1587.5 351.438 C 1587.23 351.74 1586.97 352.051 1586.69 352.345 C 1585.26 353.856 1583.9 355.249 1581.72 355.12 C 1575.73 354.764 1571.72 347.188 1567.85 343.259 C 1565.35 340.718 1563.15 339.68 1559.52 339.606 C 1554.11 344.509 1557.88 350.007 1555.56 355.301 C 1554.31 358.148 1544.37 366.764 1541.6 369.6 C 1540.84 369.435 1538.78 369.253 1538.33 368.652 C 1541.6 366.54 1544.39 364.358 1547.21 361.671 L 1547.23 360.197 C 1543.29 358.477 1527.28 364.074 1521.16 364.08 C 1519.05 362.138 1519.74 359.335 1519.57 356.513 L 1518.19 355.536 C 1516.64 356.226 1515.51 356.992 1514.23 358.078 L 1512.77 359.332 L 1511 359.016 C 1510.33 357.421 1509.57 356.065 1508.63 354.613 C 1505.89 353.807 1503.68 354.646 1501 355.325 C 1498.91 355.858 1497.1 354.315 1495.21 353.299 C 1491.6 351.364 1488.83 351.631 1484.87 351.771 C 1484.65 350.411 1484.27 349.131 1483.9 347.806 C 1481.2 345.161 1479.24 344.234 1475.54 343.388 C 1475.18 343.304 1474.81 343.231 1474.44 343.153 C 1474.56 342.915 1474.61 342.622 1474.8 342.438 C 1475.25 342.013 1475.81 341.727 1476.31 341.371 L 1474.31 337.885 C 1476.21 337.754 1475.72 337.575 1477.22 338.091 C 1478.49 338.529 1479.72 339.081 1481 339.501 C 1483.58 340.345 1484.52 340.857 1486.97 339.564 C 1488.17 335.401 1485.4 327.759 1485.36 323.035 C 1485.35 322.641 1485.36 322.248 1485.36 321.854 C 1482.38 319.065 1480.12 315.768 1476.81 313.305 z"/>
<path transform="translate(0,0)" fill="rgb(128,127,119)" d="M 1558.69 408.063 L 1558.74 406.628 C 1558.91 400.039 1557.74 398.175 1553.69 393.227 C 1553.59 391.552 1553.17 391.27 1554.42 389.932 C 1555.86 388.387 1557.16 387.936 1559.08 387.185 C 1562.78 388.015 1563.6 390.288 1565.58 393.376 L 1566.93 393.152 C 1568.78 390.393 1569.66 388.345 1573.38 387.979 C 1576.11 387.712 1576.67 388.103 1578.66 389.682 C 1580.98 395.33 1576.24 409.704 1578.63 411.393 L 1581.04 411.587 C 1580 412.658 1579.06 413.787 1577.82 414.617 C 1571.54 412.462 1564.18 412.069 1558.69 408.063 z"/>
<path transform="translate(0,0)" fill="rgb(128,127,119)" d="M 1461.77 224.554 L 1463.68 224.386 C 1467.17 227.365 1469.44 230.023 1470.68 234.527 C 1476.93 240.065 1485.38 239.398 1485.96 249.362 C 1485.99 249.823 1485.99 250.285 1486.01 250.747 C 1491.5 255.967 1506.1 254.273 1513.44 255.974 C 1517.15 256.834 1519.71 255.724 1523.1 254.383 L 1524.24 253.864 C 1525.84 248.958 1530.24 246.551 1534.32 243.871 L 1534.76 240.12 C 1537.54 238.85 1539.08 239.761 1542.01 240.429 C 1549.17 244.063 1557.64 240.47 1563.67 243.557 C 1567.23 245.483 1570.77 247.188 1573.74 249.987 L 1573.9 250.795 C 1574.74 255.478 1575.31 261.902 1572.74 266.107 C 1572.64 266.258 1572.53 266.395 1572.43 266.539 C 1569.89 268.543 1569.3 269.66 1565.99 269.622 C 1565.38 271.168 1564.65 272.731 1564.18 274.325 C 1558.32 274.638 1552.7 274.889 1547.7 278.223 L 1542.22 276.732 C 1539.78 279.483 1539.12 280.185 1539.11 283.937 C 1537.82 282.79 1537.78 282.571 1536.24 281.869 C 1532.14 279.987 1528.39 281.69 1524.42 283.052 C 1523.63 279.31 1523.16 275.487 1522.6 271.704 C 1521.72 271.113 1520.99 270.156 1519.95 269.933 C 1516.39 269.169 1505.77 271.374 1501.2 271.431 C 1499.86 272.38 1498.5 273.588 1496.94 274.108 C 1498.12 272.311 1498.7 272.152 1498.54 269.929 C 1495.73 269.094 1491.89 268.326 1489.73 266.339 C 1489.34 265.982 1489.06 265.521 1488.7 265.134 C 1488.25 264.659 1487.78 264.218 1487.32 263.756 L 1486.27 262.676 C 1484.51 258.225 1479.56 255.56 1478.18 250.66 C 1477.78 249.228 1477.62 248.471 1476.96 247.159 L 1476.19 245.684 C 1474.48 244.852 1474.74 245.184 1473.67 244.117 C 1471.12 241.571 1468.62 239.028 1465.98 236.56 C 1464.27 236.8 1463.6 236.833 1461.85 236.441 L 1463.1 231.818 C 1462.29 228.978 1460.71 228.031 1458.46 226.371 L 1461.77 224.554 z"/>
<path transform="translate(0,0)" fill="rgb(116,116,114)" d="M 1522.6 271.704 L 1525.8 275.12 L 1527.03 274.625 L 1526.69 273.594 C 1525.37 269.522 1523.56 263.936 1525.44 259.74 C 1526.95 256.356 1530.27 253.477 1533.87 252.478 C 1535.65 251.982 1535.86 252.306 1537.52 252.845 C 1543.36 260.714 1536.08 264.689 1543.2 275.045 L 1542.22 276.732 C 1539.78 279.483 1539.12 280.185 1539.11 283.937 C 1537.82 282.79 1537.78 282.571 1536.24 281.869 C 1532.14 279.987 1528.39 281.69 1524.42 283.052 C 1523.63 279.31 1523.16 275.487 1522.6 271.704 z"/>
<path transform="translate(0,0)" fill="rgb(147,140,125)" d="M 1461.77 224.554 L 1463.68 224.386 C 1467.17 227.365 1469.44 230.023 1470.68 234.527 C 1476.93 240.065 1485.38 239.398 1485.96 249.362 C 1485.99 249.823 1485.99 250.285 1486.01 250.747 C 1491.5 255.967 1506.1 254.273 1513.44 255.974 C 1517.15 256.834 1519.71 255.724 1523.1 254.383 C 1520.99 258.255 1518.91 258.623 1517.56 263.352 L 1515.54 263.802 L 1513.06 261.482 C 1509.35 261.291 1506.21 263.461 1502.8 264.751 C 1497.18 262.107 1493.24 256.76 1487.61 254.039 C 1485.09 252.817 1485.34 252.425 1484.05 250.046 C 1481.53 248.132 1479.09 246.942 1476.19 245.684 C 1474.48 244.852 1474.74 245.184 1473.67 244.117 C 1471.12 241.571 1468.62 239.028 1465.98 236.56 C 1464.27 236.8 1463.6 236.833 1461.85 236.441 L 1463.1 231.818 C 1462.29 228.978 1460.71 228.031 1458.46 226.371 L 1461.77 224.554 z"/>
<path transform="translate(0,0)" fill="rgb(142,137,123)" d="M 1461.77 224.554 C 1465.44 228.261 1467.54 231.594 1469.87 236.189 C 1476.76 240.276 1481.1 242.124 1484.05 250.046 C 1481.53 248.132 1479.09 246.942 1476.19 245.684 C 1474.48 244.852 1474.74 245.184 1473.67 244.117 C 1471.12 241.571 1468.62 239.028 1465.98 236.56 C 1464.27 236.8 1463.6 236.833 1461.85 236.441 L 1463.1 231.818 C 1462.29 228.978 1460.71 228.031 1458.46 226.371 L 1461.77 224.554 z"/>
<path transform="translate(0,0)" fill="rgb(87,96,99)" d="M 1563.67 243.557 C 1567.23 245.483 1570.77 247.188 1573.74 249.987 L 1573.9 250.795 C 1574.74 255.478 1575.31 261.902 1572.74 266.107 C 1572.64 266.258 1572.53 266.395 1572.43 266.539 C 1569.89 268.543 1569.3 269.66 1565.99 269.622 L 1564.85 267.983 C 1561.68 265.201 1558.74 262.035 1555.74 259.066 L 1555.38 259.479 C 1557.86 254.835 1559.31 249.814 1561.46 245.007 L 1563.67 243.557 z"/>
<path transform="translate(0,0)" fill="rgb(116,116,114)" d="M 1564.85 267.983 C 1561.28 268.589 1556.07 270.203 1552.63 269.01 C 1551.96 267.861 1551.84 267.793 1551.42 266.342 C 1550.24 262.282 1552.38 252.432 1554.64 248.884 C 1556.35 246.19 1558.63 245.881 1561.46 245.007 C 1559.31 249.814 1557.86 254.835 1555.38 259.479 L 1555.74 259.066 C 1558.74 262.035 1561.68 265.201 1564.85 267.983 z"/>
<path transform="translate(0,0)" fill="rgb(147,140,125)" d="M 1534.32 243.871 L 1534.76 240.12 C 1537.54 238.85 1539.08 239.761 1542.01 240.429 C 1541.09 242.795 1540.76 245.093 1538.64 246.565 C 1536.86 245.83 1535.74 245.18 1534.32 243.871 z"/>
<path transform="translate(0,0)" fill="rgb(147,140,125)" d="M 1376.24 244.576 C 1374.08 241.749 1371.24 239.62 1369.43 236.537 C 1369.86 235.641 1369.83 235.554 1370.62 234.701 C 1374.01 231.019 1388.01 225.194 1392.75 225.651 C 1396.36 226.001 1399.03 225.359 1402.2 223.507 C 1404.73 222.031 1406.97 220.365 1407.78 217.446 L 1406.47 216.524 C 1403.35 217.337 1398.77 218.159 1396.05 219.821 C 1393.89 221.146 1393.8 222.256 1393.16 224.509 C 1391.54 223.079 1391.23 222.793 1390.54 220.768 C 1390.97 219.932 1391.18 219.38 1391.94 218.703 C 1397.42 213.796 1432.23 210.02 1440.02 210.064 C 1440.42 210.067 1441.74 210.104 1442.18 210.04 C 1445.47 209.556 1447.27 207.724 1449.2 205.152 C 1449.39 204.909 1449.55 204.651 1449.72 204.4 L 1450.42 206.19 C 1450.29 206.437 1450.2 206.701 1450.05 206.93 C 1444.65 215.012 1419.25 213.319 1409.38 216.381 L 1409.68 218.322 C 1413.95 221.002 1419.79 217.598 1424.81 220.08 C 1426.6 222.448 1428.47 225.543 1431.43 226.242 C 1435.02 218.008 1449.44 223.874 1458.12 219.042 C 1458.43 218.867 1458.74 218.678 1459.05 218.495 C 1470.57 219.207 1478.8 227.615 1486.64 235.102 L 1486.57 236.497 C 1479.28 233.833 1472.8 222.513 1464.86 222.543 C 1462.77 222.551 1463.32 222.793 1461.52 222.135 C 1461.2 222.016 1460.89 221.849 1460.58 221.706 C 1460.01 221.803 1457.76 222.204 1457.25 222.232 C 1456.67 222.263 1456.09 222.186 1455.51 222.164 L 1453.97 222.944 C 1451.09 223.631 1448.57 224.169 1445.57 224.137 C 1445.5 224.594 1445.41 225.047 1445.37 225.507 C 1445.05 229.073 1446.86 231.727 1445.27 235.158 L 1443.19 237.016 L 1442.94 238.124 L 1440.86 239.34 C 1438.42 238.577 1435.85 237.489 1433.27 237.93 C 1431.47 238.236 1430.57 241.246 1429.75 242.783 L 1428 243.202 C 1425.61 241.685 1425.24 240.368 1424.21 237.855 C 1420.82 237.209 1417.47 236.782 1414.04 236.407 L 1408.4 239.122 L 1407.55 242.062 C 1408.84 243.916 1409.67 244.428 1411.54 245.617 L 1410.95 247.9 C 1408.54 247.851 1405.93 248.3 1403.87 247.017 C 1396.07 242.152 1390.04 244.506 1381.43 245.794 L 1379.34 247.345 C 1382.34 248.624 1386.18 248.108 1389.44 248.062 L 1389.05 248.53 C 1383.33 248.852 1372.97 246.836 1369.13 251.096 C 1367.15 253.292 1365.63 256.347 1364.12 258.886 C 1362.06 256.919 1361.87 256.598 1361.16 253.837 L 1362.08 251.455 L 1361.41 250.424 C 1354.99 250.512 1347.62 254.96 1343.57 259.885 C 1343.3 260.207 1343.11 260.58 1342.88 260.927 L 1339.88 261.135 L 1339.4 259.848 C 1343.12 256.418 1347.94 252.472 1352.68 250.589 C 1358.5 248.275 1361.87 243.465 1368.31 244.864 C 1369.62 248.288 1366.2 247.259 1366.24 250.721 C 1370.29 247.945 1371.17 245.732 1376.24 244.576 z"/>
<path transform="translate(0,0)" fill="rgb(142,137,123)" d="M 1383.65 238.582 C 1392.77 232.29 1411.16 217.239 1422.72 219.479 C 1424.3 219.785 1424.41 220.536 1425.28 221.727 C 1424.41 224.299 1420.32 226.195 1418.23 228.158 C 1418.17 230.952 1419.58 231.561 1421.38 233.543 L 1421.04 234.937 C 1418.73 235.663 1416.43 236.027 1414.04 236.407 L 1408.4 239.122 C 1404.83 239.178 1401.3 239.008 1397.73 238.834 C 1395 237.196 1386.93 238.403 1383.65 238.582 z"/>
<path transform="translate(0,0)" fill="rgb(142,137,123)" d="M 1424.21 237.855 C 1426.24 237.403 1427.57 236.963 1429.31 235.807 C 1429.62 233.688 1429.89 231.427 1431.1 229.606 C 1432.81 227.02 1435.3 224.926 1438.4 224.422 C 1440.76 224.039 1442.74 223.419 1444.99 222.646 L 1445.57 224.137 C 1445.5 224.594 1445.41 225.047 1445.37 225.507 C 1445.05 229.073 1446.86 231.727 1445.27 235.158 L 1443.19 237.016 L 1442.94 238.124 L 1440.86 239.34 C 1438.42 238.577 1435.85 237.489 1433.27 237.93 C 1431.47 238.236 1430.57 241.246 1429.75 242.783 L 1428 243.202 C 1425.61 241.685 1425.24 240.368 1424.21 237.855 z"/>
<path transform="translate(0,0)" fill="rgb(128,127,119)" d="M 1444.99 222.646 L 1445.57 224.137 C 1445.5 224.594 1445.41 225.047 1445.37 225.507 C 1445.05 229.073 1446.86 231.727 1445.27 235.158 L 1443.19 237.016 C 1441.03 234.158 1439.22 231.174 1437.96 227.815 C 1439.47 225.627 1442.7 224.915 1444.99 222.646 z"/>
<path transform="translate(0,0)" fill="rgb(116,116,114)" d="M 1542.22 276.732 L 1547.7 278.223 L 1545.72 280.334 L 1546.43 281.931 C 1546.87 282.071 1547.31 282.2 1547.74 282.351 C 1551.77 283.752 1555.05 286.888 1559.16 288.528 C 1563.17 290.132 1563.03 291.087 1565.56 294.289 C 1568.29 297.738 1575.42 298.061 1577.1 301.446 L 1575.98 302.048 C 1573.58 300.887 1571.48 299.817 1569.4 298.114 L 1567.96 298.619 C 1569.68 300.25 1571.44 301.375 1573.55 302.416 C 1571.4 303.815 1570.25 304.042 1569.27 306.528 L 1569.35 306.665 C 1573.07 303.93 1575.32 304.422 1579.72 304.272 C 1583.78 306.965 1585.73 309.799 1588.21 313.946 L 1589.62 314.23 L 1591.92 311.81 C 1594.11 312.173 1595.17 312.919 1596.31 314.836 C 1599.31 319.843 1599.53 325.485 1598.37 331.07 C 1601.68 334.299 1604.71 337.655 1608.9 339.73 C 1609.7 340.644 1610.35 341.388 1610.94 342.456 C 1607.62 345.837 1602.31 352.471 1597.34 352.808 C 1595.74 352.916 1594 350.426 1593.02 349.353 C 1591.68 350.702 1591.4 351.725 1590.73 353.472 L 1587.5 351.438 C 1573.29 351.806 1574.24 338.785 1564.48 334.163 C 1562.39 333.169 1560.66 332.11 1558.73 330.818 C 1563.94 324.592 1566.01 318.131 1568.48 310.549 L 1567.66 308.205 C 1565.43 304.192 1562.96 302.168 1558.87 300.167 C 1556.3 298.912 1554.25 297.712 1551.98 295.992 C 1550.68 292.725 1553.92 292.772 1553.7 289.431 L 1551.94 288.807 L 1549.06 291.609 C 1544.25 289.666 1545.64 285.574 1539.11 283.937 C 1539.12 280.185 1539.78 279.483 1542.22 276.732 z"/>
<path transform="translate(0,0)" fill="rgb(142,137,123)" d="M 1542.22 276.732 L 1547.7 278.223 L 1545.72 280.334 L 1546.43 281.931 C 1546.87 282.071 1547.31 282.2 1547.74 282.351 C 1551.77 283.752 1555.05 286.888 1559.16 288.528 C 1563.17 290.132 1563.03 291.087 1565.56 294.289 C 1568.29 297.738 1575.42 298.061 1577.1 301.446 L 1575.98 302.048 C 1573.58 300.887 1571.48 299.817 1569.4 298.114 L 1567.96 298.619 C 1569.68 300.25 1571.44 301.375 1573.55 302.416 C 1571.4 303.815 1570.25 304.042 1569.27 306.528 L 1569.35 306.665 C 1573.07 303.93 1575.32 304.422 1579.72 304.272 C 1583.78 306.965 1585.73 309.799 1588.21 313.946 L 1589.62 314.23 L 1591.92 311.81 C 1594.11 312.173 1595.17 312.919 1596.31 314.836 C 1599.31 319.843 1599.53 325.485 1598.37 331.07 C 1596.56 328.764 1594.92 325.9 1592.03 324.949 C 1590.66 325.748 1589.4 326.357 1587.91 326.893 L 1587.15 325.455 L 1587.97 322.959 L 1597.86 320.186 L 1597.86 319.63 L 1596.91 320.566 C 1596.45 320.389 1594.75 319.725 1594.31 319.669 C 1593.75 319.599 1593.18 319.706 1592.62 319.724 C 1588.12 317.232 1586.08 314.164 1583.16 310.018 L 1581.16 310.493 C 1579.12 311.67 1578.97 311.742 1576.62 311.533 C 1575.48 310.463 1574.28 309.21 1572.98 308.327 C 1571.25 307.149 1569.56 307.806 1567.66 308.205 C 1565.43 304.192 1562.96 302.168 1558.87 300.167 C 1556.3 298.912 1554.25 297.712 1551.98 295.992 C 1550.68 292.725 1553.92 292.772 1553.7 289.431 L 1551.94 288.807 L 1549.06 291.609 C 1544.25 289.666 1545.64 285.574 1539.11 283.937 C 1539.12 280.185 1539.78 279.483 1542.22 276.732 z"/>
<path transform="translate(0,0)" fill="rgb(128,127,119)" d="M 1567.66 308.205 C 1569.56 307.806 1571.25 307.149 1572.98 308.327 C 1574.28 309.21 1575.48 310.463 1576.62 311.533 C 1578.97 311.742 1579.12 311.67 1581.16 310.493 C 1581.18 310.613 1581.18 310.737 1581.21 310.851 C 1581.88 312.97 1582.5 314.847 1582.9 317.05 L 1582.54 317.201 C 1578.43 309.16 1574.96 316.523 1568.48 310.549 L 1567.66 308.205 z"/>
<path transform="translate(0,0)" fill="rgb(116,116,114)" d="M 1453.97 222.944 C 1455.44 224.118 1456.87 225.364 1458.46 226.371 C 1460.71 228.031 1462.29 228.978 1463.1 231.818 L 1461.85 236.441 C 1463.6 236.833 1464.27 236.8 1465.98 236.56 C 1468.62 239.028 1471.12 241.571 1473.67 244.117 C 1474.74 245.184 1474.48 244.852 1476.19 245.684 L 1476.96 247.159 C 1477.62 248.471 1477.78 249.228 1478.18 250.66 C 1479.56 255.56 1484.51 258.225 1486.27 262.676 C 1486.67 264.214 1486.99 266.984 1487.73 268.289 C 1489.09 270.675 1491.12 270.029 1491.62 273.32 L 1490.32 273.612 C 1481.07 267.149 1481.76 254.143 1473.05 247.436 C 1471.15 247.128 1469.76 246.855 1468.02 245.999 C 1464.51 244.272 1463.12 244.211 1459.46 245.198 L 1458.85 246.65 C 1461.19 251.721 1463.99 257.412 1464.54 262.99 C 1463.15 263.591 1462.44 264.006 1461.21 264.982 C 1465.27 267.395 1471.14 270.356 1473.46 274.542 L 1472.83 275.488 C 1471.54 274.989 1470.51 274.466 1469.46 273.566 C 1460.62 266.007 1445.62 255.168 1435.1 250.317 C 1431.54 248.672 1426.99 247.402 1423.26 249.335 C 1421.3 250.351 1411.27 267.17 1411.17 269.483 C 1411.03 272.84 1413.87 275.144 1412.88 279.028 L 1411.75 279.36 C 1411.53 279.036 1411.29 278.73 1411.11 278.388 C 1409.62 275.638 1408.47 271.202 1409.19 268.12 C 1411.7 265.1 1413.62 262.372 1415.25 258.778 C 1415.39 258.452 1415.54 258.122 1415.68 257.794 L 1415.01 256.538 C 1414.59 256.513 1414.17 256.51 1413.75 256.465 C 1411.54 256.225 1411.52 256.114 1410.22 254.408 C 1410.28 252.132 1410.46 250.124 1410.95 247.9 L 1411.54 245.617 C 1409.67 244.428 1408.84 243.916 1407.55 242.062 L 1408.4 239.122 L 1414.04 236.407 C 1417.47 236.782 1420.82 237.209 1424.21 237.855 C 1425.24 240.368 1425.61 241.685 1428 243.202 L 1429.75 242.783 C 1430.57 241.246 1431.47 238.236 1433.27 237.93 C 1435.85 237.489 1438.42 238.577 1440.86 239.34 L 1442.94 238.124 L 1443.19 237.016 L 1445.27 235.158 C 1446.86 231.727 1445.05 229.073 1445.37 225.507 C 1445.41 225.047 1445.5 224.594 1445.57 224.137 C 1448.57 224.169 1451.09 223.631 1453.97 222.944 z"/>
<path transform="translate(0,0)" fill="rgb(128,127,119)" d="M 1414.04 236.407 C 1417.47 236.782 1420.82 237.209 1424.21 237.855 C 1425.24 240.368 1425.61 241.685 1428 243.202 L 1429.75 242.783 C 1430.57 241.246 1431.47 238.236 1433.27 237.93 C 1435.85 237.489 1438.42 238.577 1440.86 239.34 L 1442.94 238.124 L 1447.42 241.573 C 1447.84 245.696 1448.28 250.314 1446.27 254.064 C 1443.67 254.711 1442.71 253.813 1440.54 252.472 C 1435.92 249.619 1430.69 244.936 1424.82 246.181 C 1422.19 246.737 1419.86 247.566 1418.52 250.052 C 1417.25 252.401 1417.27 255.695 1415.68 257.794 L 1415.01 256.538 C 1414.59 256.513 1414.17 256.51 1413.75 256.465 C 1411.54 256.225 1411.52 256.114 1410.22 254.408 C 1410.28 252.132 1410.46 250.124 1410.95 247.9 L 1411.54 245.617 C 1409.67 244.428 1408.84 243.916 1407.55 242.062 L 1408.4 239.122 L 1414.04 236.407 z"/>
<path transform="translate(0,0)" fill="rgb(128,127,119)" d="M 1608.9 339.73 C 1611.03 339.873 1611.88 339.691 1613.29 341.531 C 1613.78 342.163 1614.52 343.615 1614.91 344.354 C 1617.52 344.239 1618.3 343.406 1620.44 341.982 C 1620.45 342.285 1620.45 342.588 1620.46 342.89 C 1620.55 345.754 1620.78 347.084 1622.56 349.477 C 1625.26 351.188 1627.62 351.447 1630.71 351.861 C 1632.78 353.677 1632.42 354.739 1632.59 357.443 C 1632.9 362.334 1632.61 367.849 1631.23 372.558 C 1629.41 374.398 1628.94 375.224 1626.47 375.827 C 1624.31 373.648 1624.07 370.284 1623.45 367.383 C 1621.34 368.486 1621.32 368.355 1618.97 367.837 C 1617.57 366.442 1616.3 365.135 1615.16 363.511 L 1609.82 362.839 C 1609.75 362.796 1609.7 362.736 1609.63 362.708 C 1604.85 360.803 1600.88 357.738 1596.22 355.815 C 1594.37 355.055 1592.56 354.27 1590.73 353.472 C 1591.4 351.725 1591.68 350.702 1593.02 349.353 C 1594 350.426 1595.74 352.916 1597.34 352.808 C 1602.31 352.471 1607.62 345.837 1610.94 342.456 C 1610.35 341.388 1609.7 340.644 1608.9 339.73 z"/>
<path transform="translate(0,0)" fill="rgb(116,116,114)" d="M 1573.74 249.987 C 1577.3 250.637 1577.75 250.828 1580.44 253.248 C 1580.74 253.408 1581.04 253.573 1581.34 253.729 C 1584.52 255.384 1589.19 255.19 1591.56 256.977 L 1591.95 258.35 C 1589.76 258.651 1587.96 258.073 1585.85 257.57 C 1588.21 264.554 1596.47 269.791 1599.76 276.783 L 1605.13 277.166 L 1605.31 277.84 C 1603.7 278.06 1602.36 278.015 1600.75 277.907 C 1598.9 277.782 1597.05 277.842 1595.44 278.957 C 1594.98 279.279 1594.61 279.727 1594.2 280.112 L 1591.84 281.907 L 1590.34 283.004 C 1585.83 281.396 1580.54 276.831 1576.43 275.889 C 1571.68 274.799 1569.1 276.666 1564.18 274.325 C 1564.65 272.731 1565.38 271.168 1565.99 269.622 C 1569.3 269.66 1569.89 268.543 1572.43 266.539 C 1572.53 266.395 1572.64 266.258 1572.74 266.107 C 1575.31 261.902 1574.74 255.478 1573.9 250.795 L 1573.74 249.987 z"/>
<path transform="translate(0,0)" fill="rgb(103,106,106)" d="M 1573.9 250.795 C 1578.17 255.363 1582.93 265.157 1582.4 271.509 C 1582.23 273.562 1582.02 274.751 1580.43 276.147 C 1576.83 275.629 1576.64 274.804 1574.52 271.818 C 1573.21 269.983 1572.85 268.705 1572.43 266.539 C 1572.53 266.395 1572.64 266.258 1572.74 266.107 C 1575.31 261.902 1574.74 255.478 1573.9 250.795 z"/>
<path transform="translate(0,0)" fill="rgb(142,137,123)" d="M 1580.44 253.248 C 1580.74 253.408 1581.04 253.573 1581.34 253.729 C 1584.52 255.384 1589.19 255.19 1591.56 256.977 L 1591.95 258.35 C 1589.76 258.651 1587.96 258.073 1585.85 257.57 C 1588.21 264.554 1596.47 269.791 1599.76 276.783 L 1605.13 277.166 L 1605.31 277.84 C 1603.7 278.06 1602.36 278.015 1600.75 277.907 C 1598.9 277.782 1597.05 277.842 1595.44 278.957 C 1594.98 279.279 1594.61 279.727 1594.2 280.112 L 1591.84 281.907 C 1591.01 277.325 1590.79 272.723 1590.49 268.084 C 1587.09 263.172 1583.74 258.227 1580.44 253.248 z"/>
<path transform="translate(0,0)" fill="rgb(147,140,125)" d="M 1579.72 304.272 C 1583.2 301.533 1585.85 301.875 1590.25 302.468 C 1596.17 303.266 1602.05 306.42 1605.52 311.353 C 1606.9 313.307 1607.63 315.324 1608.4 317.566 L 1608.01 319.451 C 1607.5 319.48 1606.98 319.5 1606.47 319.537 C 1604.22 319.698 1605.1 319.572 1602.88 320.216 C 1602.18 323.898 1605.42 328.836 1607.22 332.013 C 1607.55 332.057 1607.87 332.094 1608.19 332.145 C 1609.58 332.365 1609.05 332.218 1610.31 332.857 L 1610.34 334.624 C 1612.96 334.033 1612.67 333.709 1614.26 331.723 C 1613.54 329.792 1613.97 330.675 1613.01 329.055 C 1613.13 328.732 1613.25 328.411 1613.36 328.086 C 1616.2 319.901 1608.5 314.462 1613.55 309.739 L 1615.98 309.554 C 1617.74 311.422 1618.3 312.988 1619.18 315.341 L 1618.02 316.022 L 1617.57 315.898 L 1617.81 313.807 L 1617.03 315.308 L 1614.79 312.174 L 1614.06 312.911 C 1614.75 315.448 1615.49 317.832 1616.45 320.282 C 1617.9 323.977 1616.49 326.912 1615.45 330.494 C 1614.96 332.176 1615.13 331.582 1615.08 333.701 L 1611.86 336.628 C 1612.5 338.931 1612.77 338.686 1614.57 340.054 L 1616.31 339.902 C 1617.61 337.048 1617.49 330.011 1619.39 328.921 C 1620.93 330.691 1622.03 331.856 1621.85 334.364 C 1621.66 336.868 1620.96 339.522 1620.44 341.982 C 1618.3 343.406 1617.52 344.239 1614.91 344.354 C 1614.52 343.615 1613.78 342.163 1613.29 341.531 C 1611.88 339.691 1611.03 339.873 1608.9 339.73 C 1604.71 337.655 1601.68 334.299 1598.37 331.07 C 1599.53 325.485 1599.31 319.843 1596.31 314.836 C 1595.17 312.919 1594.11 312.173 1591.92 311.81 L 1589.62 314.23 L 1588.21 313.946 C 1585.73 309.799 1583.78 306.965 1579.72 304.272 z"/>
<path transform="translate(0,0)" fill="rgb(147,140,125)" d="M 1449.37 195.632 C 1449.91 195.594 1450.44 195.519 1450.98 195.519 C 1460 195.52 1468.76 198.373 1477.6 199.738 C 1483.47 200.644 1489.46 200.125 1495.23 201.894 C 1498.59 202.927 1502.27 204.571 1504.83 206.975 C 1502.66 207.776 1498.8 205.378 1496.58 204.551 C 1489.91 202.07 1483.89 202.171 1477.01 201.163 C 1468.18 199.869 1459.22 197.796 1450.3 197.266 C 1437.99 196.535 1401.72 200.636 1390.66 205.041 C 1380.57 209.056 1373.52 218.511 1363.45 222.957 C 1363.07 223.126 1362.68 223.276 1362.29 223.435 C 1360.83 224.977 1361.41 224.515 1359.97 225.591 C 1354.17 229.942 1350.77 236.316 1345.32 240.46 C 1342.45 242.649 1337.1 244.262 1333.55 243.947 C 1336.12 240.569 1341.8 240.336 1345.41 237.518 L 1345.97 235.826 C 1347.69 234.63 1347.01 235.334 1348.09 233.797 L 1346.39 234.647 C 1347.82 231.74 1349.95 228.133 1352.83 226.461 C 1355.21 225.08 1352.98 226.691 1354.94 225.208 C 1355.2 225.008 1355.45 224.778 1355.73 224.604 C 1360.09 221.895 1364.43 219.627 1368.55 216.491 C 1367.41 215.422 1366.87 215.045 1366.36 213.536 C 1368.51 209.783 1372.95 203.322 1376.86 201.529 C 1377.09 203.55 1376.37 205.563 1375.92 207.535 L 1376.84 208.502 C 1381.62 206.713 1385.83 203.62 1390.88 201.976 C 1408.48 196.252 1430.87 196.456 1449.37 195.632 z"/>
<path transform="translate(0,0)" fill="rgb(128,127,119)" d="M 1452.79 319.81 C 1458.08 318.251 1467.13 315.321 1472.57 316.604 L 1472.15 317.799 C 1468.45 318.93 1462.66 319.974 1458.91 319.636 L 1459.33 319.936 C 1456.94 320.365 1456.82 320.026 1455.03 321.879 C 1456.6 329.293 1466.52 330.925 1468.82 338.264 C 1465.22 338.335 1462.03 336.456 1459.49 334.054 C 1458.94 333.527 1458.4 332.978 1457.87 332.428 L 1456.77 332.826 C 1455.69 335.852 1453.64 337.052 1450.78 338.408 C 1449.34 339.092 1447.87 339.704 1446.4 340.331 C 1446.29 340.377 1446.19 340.426 1446.08 340.474 C 1445.77 340.406 1445.47 340.324 1445.16 340.271 C 1443.67 340.015 1444.22 340.072 1442.57 340.571 C 1444.01 339.5 1445.52 338.993 1445.95 337.205 C 1444.87 336.669 1443.74 336.226 1442.63 335.755 C 1439.08 337.782 1433.71 339.688 1429.64 339.136 L 1428.88 337.503 L 1430.2 336.295 C 1434.05 336.091 1445.04 334.379 1447.41 331.339 C 1448.44 330.017 1447.43 329.52 1449.15 327.928 C 1450.39 325.232 1451.6 322.526 1452.79 319.81 z"/>
<path transform="translate(0,0)" fill="rgb(116,116,114)" d="M 1445.95 337.205 C 1444.87 336.669 1443.74 336.226 1442.63 335.755 C 1439.08 337.782 1433.71 339.688 1429.64 339.136 L 1428.88 337.503 L 1430.2 336.295 C 1434.05 336.091 1445.04 334.379 1447.41 331.339 C 1448.44 330.017 1447.43 329.52 1449.15 327.928 C 1450.61 330.675 1454.08 331.755 1454.34 334.137 C 1451.91 336.29 1449.02 336.57 1445.95 337.205 z"/>
<path transform="translate(0,0)" fill="rgb(87,96,99)" d="M 1291.89 458.606 C 1293.3 460.06 1294.73 461.525 1295.99 463.117 C 1298.79 466.683 1297.73 471.546 1297.26 475.728 C 1295.18 474.883 1292.72 473.888 1290.88 472.638 C 1288.74 471.186 1288.42 469.623 1287.91 467.218 C 1288.65 463.422 1289.34 461.539 1291.89 458.606 z"/>
<path transform="translate(0,0)" fill="rgb(128,127,119)" d="M 1342.88 260.927 L 1344.08 262.578 C 1336.52 271.75 1329.62 271.01 1322.48 277.985 L 1321.24 277.879 L 1320.89 277.078 C 1320.57 275.152 1320.11 273.216 1320.17 271.262 L 1321.74 271.32 L 1322.77 274.297 L 1324.09 274.578 C 1325.61 272.433 1326.56 270.509 1327.58 268.113 C 1331.92 265.323 1340.17 264.994 1342.88 260.927 z"/>
<path transform="translate(0,0)" fill="rgb(142,137,123)" d="M 1368.32 369.422 C 1369.81 370.243 1370.88 371.123 1372.17 372.22 C 1372.43 376.399 1369.13 379.049 1368.09 383.055 C 1367.52 385.289 1368.03 383.755 1367.28 385.77 C 1365.31 386.463 1364.37 386.434 1362.33 386.004 L 1361.45 384.529 C 1362.19 379.331 1365.99 374.133 1368.32 369.422 z"/>
<path transform="translate(0,0)" fill="rgb(116,116,114)" d="M 1438.51 324.869 C 1438.39 320.868 1438.1 317.271 1440.6 313.975 C 1443.99 314.027 1444.54 315.06 1447.12 317.123 C 1446.75 320.485 1446.81 324.611 1444.64 327.306 C 1441.49 327.382 1441.03 326.631 1438.51 324.869 z"/>
<path transform="translate(0,0)" fill="rgb(147,140,125)" d="M 1591.84 281.907 L 1594.2 280.112 C 1594.33 280.681 1594.44 281.254 1594.58 281.821 C 1595.16 284.233 1596.46 285.826 1598 287.703 C 1595.59 291.596 1593.02 295.206 1590.25 298.848 L 1589.26 298.589 C 1589.42 295.256 1593.05 286.257 1591.66 284.328 C 1591.3 283.822 1590.78 283.445 1590.34 283.004 L 1591.84 281.907 z"/>
<path transform="translate(0,0)" fill="rgb(128,127,119)" d="M 1364.12 258.886 C 1365.25 260.783 1365.58 260.421 1367.59 261.034 L 1367.94 262.126 C 1363.58 261.612 1360.84 262.503 1356.82 263.951 L 1355.29 264.508 C 1355.19 264.249 1355.06 263.999 1354.99 263.73 C 1354.48 261.697 1354.77 258.469 1355.85 256.66 C 1357.32 254.197 1358.53 254.439 1361.16 253.837 C 1361.87 256.598 1362.06 256.919 1364.12 258.886 z"/>
<path transform="translate(0,0)" fill="rgb(142,137,123)" d="M 1351.45 378.4 C 1351.94 378.513 1352.44 378.57 1352.91 378.739 C 1355.35 379.623 1357.21 381.75 1358.09 384.087 C 1357.35 386.843 1356.77 386.692 1354.3 388.213 C 1353.93 388.29 1353.57 388.415 1353.2 388.444 C 1350.54 388.651 1350.05 388.637 1348.27 386.871 C 1348.33 383.363 1349.72 381.305 1351.45 378.4 z"/>
<path transform="translate(0,0)" fill="rgb(116,116,114)" d="M 1383.71 429.691 C 1386.39 429.79 1388.77 430.098 1391.4 430.609 C 1394.07 432.426 1394.52 434.194 1395.47 437.106 C 1392.78 437.109 1390.27 436.945 1387.59 436.626 C 1384.98 434.359 1384.81 432.914 1383.71 429.691 z"/>
<path transform="translate(0,0)" fill="rgb(128,127,119)" d="M 1455.65 441.315 C 1456.8 441.902 1457 441.914 1458.06 442.977 C 1460.38 445.328 1463.89 451.764 1464.14 455.029 C 1461.55 452.708 1458.44 451.019 1455.74 448.773 C 1454.63 445.642 1455.07 444.52 1455.65 441.315 z"/>
<path transform="translate(0,0)" fill="rgb(142,137,123)" d="M 1347.26 425.266 C 1350.68 426.858 1352.68 428.586 1354.37 431.948 L 1353.29 434.808 L 1349.98 435.538 L 1348.06 434.113 C 1346.94 431.082 1347.15 428.423 1347.26 425.266 z"/>
<path transform="translate(0,0)" fill="rgb(142,137,123)" d="M 1528.14 420.271 C 1530.27 421.026 1531.02 421.529 1532.37 423.352 C 1531.96 426.538 1530.88 427.528 1529 430.075 C 1526.84 429.345 1526.7 429.285 1525.35 427.454 C 1525.62 424.518 1526.69 422.738 1528.14 420.271 z"/>
<path transform="translate(0,0)" fill="rgb(0,3,9)" d="M 1101.37 800.179 C 1105.2 800.338 1109.63 801.871 1112.22 804.755 C 1119.56 812.918 1118.29 859.82 1117.47 872.394 C 1114.37 872.613 1111.78 872.377 1108.72 871.849 C 1103.77 871.754 1095.92 872.069 1091.58 869.758 C 1088.39 852.741 1089.86 826.21 1091.66 808.658 C 1094.66 804.336 1096.53 802.438 1101.37 800.179 z"/>
</svg>